<svg width="1180" height="1480" viewBox="0 0 1180 1480" class="keymap" xmlns="http://www.w3.org/2000/svg" xmlns:xlink="http://www.w3.org/1999/xlink">
<style>.background { fill: #1a1b26; }
.key { fill: #292e42; stroke: #3b4261; stroke-width: 1; }
.key.held { fill: #3b4261; stroke: #e0af68; stroke-width: 1; }
.key.ghost { stroke-dasharray: 4,4; stroke: #565f89; stroke-width: 1; }
.keycode { font-size: 9px; font-family: monospace; fill: #c0caf5; text-anchor: middle; dominant-baseline: middle; }
.tap { font-size: 11px; }
.hold { font-size: 8px; fill: #a9b1d6; }
.shifted { font-size: 8px; fill: #a9b1d6; }
.layer { font-size: 14px; font-weight: bold; fill: #c0caf5; }
.combo { fill: #bb9af7; stroke: #3b4261; stroke-width: 1; }
</style>
<g transform="translate(30, 0)" class="layer-Graphite">
<text x="0" y="28" class="label" id="Graphite">Graphite:</text>
<g transform="translate(0, 56)">
<g transform="translate(32, 56)" class="key keypos-0">
<rect rx="6" ry="6" x="-30" y="-30" width="60" height="60" class="key"/>
<text x="0" y="0" class="key tap">ESC</text>
<text x="0" y="26" class="key hold">LGUI</text>
</g>
<g transform="translate(96, 56)" class="key keypos-1">
<rect rx="6" ry="6" x="-30" y="-30" width="60" height="60" class="key"/>
<text x="0" y="0" class="key tap">B</text>
<a href="#System">
<text x="0" y="26" class="key hold layer-activator">System</text>
</a></g>
<g transform="translate(160, 40)" class="key keypos-2">
<rect rx="6" ry="6" x="-30" y="-30" width="60" height="60" class="key"/>
<text x="0" y="0" class="key tap">L</text>
</g>
<g transform="translate(224, 32)" class="key keypos-3">
<rect rx="6" ry="6" x="-30" y="-30" width="60" height="60" class="key"/>
<text x="0" y="0" class="key tap">D</text>
</g>
<g transform="translate(288, 40)" class="key keypos-4">
<rect rx="6" ry="6" x="-30" y="-30" width="60" height="60" class="key"/>
<text x="0" y="0" class="key tap">W</text>
</g>
<g transform="translate(352, 47)" class="key keypos-5">
<rect rx="6" ry="6" x="-30" y="-30" width="60" height="60" class="key"/>
<text x="0" y="0" class="key tap">Z</text>
</g>
<g transform="translate(624, 47)" class="key keypos-6">
<rect rx="6" ry="6" x="-30" y="-30" width="60" height="60" class="key"/>
<text x="0" y="0" class="key tap">UP</text>
</g>
<g transform="translate(768, 47)" class="key keypos-7">
<rect rx="6" ry="6" x="-30" y="-30" width="60" height="60" class="key"/>
<text x="0" y="0" class="key tap">;</text>
</g>
<g transform="translate(832, 40)" class="key keypos-8">
<rect rx="6" ry="6" x="-30" y="-30" width="60" height="60" class="key"/>
<text x="0" y="0" class="key tap">F</text>
</g>
<g transform="translate(896, 32)" class="key keypos-9">
<rect rx="6" ry="6" x="-30" y="-30" width="60" height="60" class="key"/>
<text x="0" y="0" class="key tap">O</text>
</g>
<g transform="translate(960, 40)" class="key keypos-10">
<rect rx="6" ry="6" x="-30" y="-30" width="60" height="60" class="key"/>
<text x="0" y="0" class="key tap">U</text>
</g>
<g transform="translate(1024, 56)" class="key keypos-11">
<rect rx="6" ry="6" x="-30" y="-30" width="60" height="60" class="key"/>
<text x="0" y="0" class="key tap">J</text>
</g>
<g transform="translate(1088, 56)" class="key keypos-12">
<rect rx="6" ry="6" x="-30" y="-30" width="60" height="60" class="key"/>
<text x="0" y="0" class="key tap">RSHFT</text>
</g>
<g transform="translate(32, 120)" class="key keypos-13">
<rect rx="6" ry="6" x="-30" y="-30" width="60" height="60" class="key"/>
<text x="0" y="0" class="key tap">TAB</text>
<a href="#Function">
<text x="0" y="26" class="key hold layer-activator"><tspan style="font-size: 88%">Function</tspan></text>
</a></g>
<g transform="translate(96, 120)" class="key keypos-14">
<rect rx="6" ry="6" x="-30" y="-30" width="60" height="60" class="key"/>
<text x="0" y="0" class="key tap">N</text>
</g>
<g transform="translate(160, 104)" class="key keypos-15">
<rect rx="6" ry="6" x="-30" y="-30" width="60" height="60" class="key"/>
<text x="0" y="0" class="key tap">R</text>
</g>
<g transform="translate(224, 96)" class="key keypos-16">
<rect rx="6" ry="6" x="-30" y="-30" width="60" height="60" class="key"/>
<text x="0" y="0" class="key tap">T</text>
</g>
<g transform="translate(288, 104)" class="key keypos-17">
<rect rx="6" ry="6" x="-30" y="-30" width="60" height="60" class="key"/>
<text x="0" y="0" class="key tap">S</text>
</g>
<g transform="translate(352, 111)" class="key keypos-18">
<rect rx="6" ry="6" x="-30" y="-30" width="60" height="60" class="key"/>
<text x="0" y="0" class="key tap">G</text>
</g>
<g transform="translate(560, 111)" class="key keypos-19">
<rect rx="6" ry="6" x="-30" y="-30" width="60" height="60" class="key"/>
<text x="0" y="0" class="key tap">LEFT</text>
</g>
<g transform="translate(624, 111)" class="key keypos-20">
<rect rx="6" ry="6" x="-30" y="-30" width="60" height="60" class="key"/>
<text x="0" y="0" class="key tap">ENTER</text>
</g>
<g transform="translate(688, 111)" class="key keypos-21">
<rect rx="6" ry="6" x="-30" y="-30" width="60" height="60" class="key"/>
<text x="0" y="0" class="key tap">RIGHT</text>
</g>
<g transform="translate(768, 111)" class="key keypos-22">
<rect rx="6" ry="6" x="-30" y="-30" width="60" height="60" class="key"/>
<text x="0" y="0" class="key tap">Y</text>
</g>
<g transform="translate(832, 104)" class="key keypos-23">
<rect rx="6" ry="6" x="-30" y="-30" width="60" height="60" class="key"/>
<text x="0" y="0" class="key tap">H</text>
</g>
<g transform="translate(896, 96)" class="key keypos-24">
<rect rx="6" ry="6" x="-30" y="-30" width="60" height="60" class="key"/>
<text x="0" y="0" class="key tap">A</text>
</g>
<g transform="translate(960, 104)" class="key keypos-25">
<rect rx="6" ry="6" x="-30" y="-30" width="60" height="60" class="key"/>
<text x="0" y="0" class="key tap">E</text>
</g>
<g transform="translate(1024, 120)" class="key keypos-26">
<rect rx="6" ry="6" x="-30" y="-30" width="60" height="60" class="key"/>
<text x="0" y="0" class="key tap">I</text>
</g>
<g transform="translate(1088, 120)" class="key keypos-27">
<rect rx="6" ry="6" x="-30" y="-30" width="60" height="60" class="key"/>
<text x="0" y="0" class="key tap">&#x27;</text>
</g>
<g transform="translate(32, 184)" class="key keypos-28">
<rect rx="6" ry="6" x="-30" y="-30" width="60" height="60" class="key"/>
<text x="0" y="0" class="key tap">LSHFT</text>
</g>
<g transform="translate(96, 184)" class="key keypos-29">
<rect rx="6" ry="6" x="-30" y="-30" width="60" height="60" class="key"/>
<text x="0" y="0" class="key tap">Q</text>
</g>
<g transform="translate(160, 168)" class="key keypos-30">
<rect rx="6" ry="6" x="-30" y="-30" width="60" height="60" class="key"/>
<text x="0" y="0" class="key tap">X</text>
</g>
<g transform="translate(224, 160)" class="key keypos-31">
<rect rx="6" ry="6" x="-30" y="-30" width="60" height="60" class="key"/>
<text x="0" y="0" class="key tap">M</text>
</g>
<g transform="translate(288, 168)" class="key keypos-32">
<rect rx="6" ry="6" x="-30" y="-30" width="60" height="60" class="key"/>
<text x="0" y="0" class="key tap">C</text>
</g>
<g transform="translate(352, 175)" class="key keypos-33">
<rect rx="6" ry="6" x="-30" y="-30" width="60" height="60" class="key"/>
<text x="0" y="0" class="key tap">V</text>
</g>
<g transform="translate(432, 175)" class="key keypos-34">
<rect rx="6" ry="6" x="-30" y="-30" width="60" height="60" class="key"/>
<text x="0" y="0" class="key tap">SPACE</text>
</g>
<g transform="translate(624, 175)" class="key keypos-35">
<rect rx="6" ry="6" x="-30" y="-30" width="60" height="60" class="key"/>
<text x="0" y="0" class="key tap">DOWN</text>
</g>
<g transform="translate(768, 175)" class="key keypos-36">
<rect rx="6" ry="6" x="-30" y="-30" width="60" height="60" class="key"/>
<text x="0" y="0" class="key tap">K</text>
</g>
<g transform="translate(832, 168)" class="key keypos-37">
<rect rx="6" ry="6" x="-30" y="-30" width="60" height="60" class="key"/>
<text x="0" y="0" class="key tap">P</text>
</g>
<g transform="translate(896, 160)" class="key keypos-38">
<rect rx="6" ry="6" x="-30" y="-30" width="60" height="60" class="key"/>
<text x="0" y="0" class="key tap">.</text>
</g>
<g transform="translate(960, 168)" class="key keypos-39">
<rect rx="6" ry="6" x="-30" y="-30" width="60" height="60" class="key"/>
<text x="0" y="0" class="key tap">-</text>
</g>
<g transform="translate(1024, 184)" class="key keypos-40">
<rect rx="6" ry="6" x="-30" y="-30" width="60" height="60" class="key"/>
<text x="0" y="0" class="key tap">/</text>
</g>
<g transform="translate(1088, 184)" class="key keypos-41">
<rect rx="6" ry="6" x="-30" y="-30" width="60" height="60" class="key"/>
<text x="0" y="0" class="key tap">,</text>
</g>
<g transform="translate(256, 232)" class="key keypos-42">
<rect rx="6" ry="6" x="-30" y="-30" width="60" height="60" class="key"/>
<text x="0" y="0" class="key tap">LCTRL</text>
</g>
<g transform="translate(326, 239) rotate(12.0)" class="key keypos-43">
<rect rx="6" ry="6" x="-30" y="-30" width="60" height="60" class="key"/>
<a href="#Symbols">
<text x="0" y="0" class="key tap layer-activator">Symbols</text>
</a></g>
<g transform="translate(398, 258) rotate(24.0)" class="key keypos-44">
<rect rx="6" ry="6" x="-30" y="-30" width="60" height="60" class="key"/>
<text x="0" y="0" class="key tap">SPC</text>
</g>
<g transform="translate(722, 256) rotate(-24.0)" class="key keypos-45">
<rect rx="6" ry="6" x="-30" y="-30" width="60" height="60" class="key"/>
<text x="0" y="0" class="key tap">RET</text>
</g>
<g transform="translate(794, 239) rotate(-12.0)" class="key keypos-46">
<rect rx="6" ry="6" x="-30" y="-30" width="60" height="60" class="key"/>
<text x="0" y="0" class="key tap">BSPC</text>
</g>
<g transform="translate(864, 232)" class="key keypos-47">
<rect rx="6" ry="6" x="-30" y="-30" width="60" height="60" class="key"/>
<text x="0" y="0" class="key tap">RALT</text>
</g>
<g class="combo combopos-0">
<path d="M117,114 l-15,49" class="combo"/>
<rect rx="6" ry="6" x="103" y="101" width="28" height="26" class="combo"/>
<text x="117" y="114" class="combo tap"><tspan style="font-size: 78%">&amp;soft_off</tspan></text>
</g>
</g>
</g>
<g transform="translate(30, 356)" class="layer-Symbols">
<text x="0" y="28" class="label" id="Symbols">Symbols:</text>
<g transform="translate(0, 56)">
<g transform="translate(32, 56)" class="key trans keypos-0">
<rect rx="6" ry="6" x="-30" y="-30" width="60" height="60" class="key trans"/>
<text x="0" y="0" class="key trans tap">▽</text>
</g>
<g transform="translate(96, 56)" class="key keypos-1">
<rect rx="6" ry="6" x="-30" y="-30" width="60" height="60" class="key"/>
<text x="0" y="0" class="key tap">1</text>
</g>
<g transform="translate(160, 40)" class="key keypos-2">
<rect rx="6" ry="6" x="-30" y="-30" width="60" height="60" class="key"/>
<text x="0" y="0" class="key tap">2</text>
</g>
<g transform="translate(224, 32)" class="key keypos-3">
<rect rx="6" ry="6" x="-30" y="-30" width="60" height="60" class="key"/>
<text x="0" y="0" class="key tap">3</text>
</g>
<g transform="translate(288, 40)" class="key keypos-4">
<rect rx="6" ry="6" x="-30" y="-30" width="60" height="60" class="key"/>
<text x="0" y="0" class="key tap">4</text>
</g>
<g transform="translate(352, 47)" class="key keypos-5">
<rect rx="6" ry="6" x="-30" y="-30" width="60" height="60" class="key"/>
<text x="0" y="0" class="key tap">5</text>
</g>
<g transform="translate(624, 47)" class="key keypos-6">
<rect rx="6" ry="6" x="-30" y="-30" width="60" height="60" class="key"/>
<text x="0" y="0" class="key tap">
<tspan x="0" dy="-0.6em">&amp;mmv</tspan><tspan x="0" dy="1.2em">MOVE_UP</tspan>
</text>
</g>
<g transform="translate(768, 47)" class="key keypos-7">
<rect rx="6" ry="6" x="-30" y="-30" width="60" height="60" class="key"/>
<text x="0" y="0" class="key tap">6</text>
</g>
<g transform="translate(832, 40)" class="key keypos-8">
<rect rx="6" ry="6" x="-30" y="-30" width="60" height="60" class="key"/>
<text x="0" y="0" class="key tap">7</text>
</g>
<g transform="translate(896, 32)" class="key keypos-9">
<rect rx="6" ry="6" x="-30" y="-30" width="60" height="60" class="key"/>
<text x="0" y="0" class="key tap">8</text>
</g>
<g transform="translate(960, 40)" class="key keypos-10">
<rect rx="6" ry="6" x="-30" y="-30" width="60" height="60" class="key"/>
<text x="0" y="0" class="key tap">9</text>
</g>
<g transform="translate(1024, 56)" class="key keypos-11">
<rect rx="6" ry="6" x="-30" y="-30" width="60" height="60" class="key"/>
<text x="0" y="0" class="key tap">0</text>
</g>
<g transform="translate(1088, 56)" class="key trans keypos-12">
<rect rx="6" ry="6" x="-30" y="-30" width="60" height="60" class="key trans"/>
<text x="0" y="0" class="key trans tap">▽</text>
</g>
<g transform="translate(32, 120)" class="key trans keypos-13">
<rect rx="6" ry="6" x="-30" y="-30" width="60" height="60" class="key trans"/>
<text x="0" y="0" class="key trans tap">▽</text>
</g>
<g transform="translate(96, 120)" class="key keypos-14">
<rect rx="6" ry="6" x="-30" y="-30" width="60" height="60" class="key"/>
<text x="0" y="0" class="key tap">!</text>
</g>
<g transform="translate(160, 104)" class="key keypos-15">
<rect rx="6" ry="6" x="-30" y="-30" width="60" height="60" class="key"/>
<text x="0" y="0" class="key tap">[</text>
</g>
<g transform="translate(224, 96)" class="key keypos-16">
<rect rx="6" ry="6" x="-30" y="-30" width="60" height="60" class="key"/>
<text x="0" y="0" class="key tap">{</text>
</g>
<g transform="translate(288, 104)" class="key keypos-17">
<rect rx="6" ry="6" x="-30" y="-30" width="60" height="60" class="key"/>
<text x="0" y="0" class="key tap">(</text>
</g>
<g transform="translate(352, 111)" class="key keypos-18">
<rect rx="6" ry="6" x="-30" y="-30" width="60" height="60" class="key"/>
<text x="0" y="0" class="key tap">%</text>
</g>
<g transform="translate(560, 111)" class="key keypos-19">
<rect rx="6" ry="6" x="-30" y="-30" width="60" height="60" class="key"/>
<text x="0" y="0" class="key tap">
<tspan x="0" dy="-0.6em" style="font-size: 78%">&amp;mmv</tspan><tspan x="0" dy="1.2em" style="font-size: 78%">MOVE_LEFT</tspan>
</text>
</g>
<g transform="translate(624, 111)" class="key keypos-20">
<rect rx="6" ry="6" x="-30" y="-30" width="60" height="60" class="key"/>
<text x="0" y="0" class="key tap">
<tspan x="0" dy="-0.6em">&amp;mkp</tspan><tspan x="0" dy="1.2em">LCLK</tspan>
</text>
</g>
<g transform="translate(688, 111)" class="key keypos-21">
<rect rx="6" ry="6" x="-30" y="-30" width="60" height="60" class="key"/>
<text x="0" y="0" class="key tap">
<tspan x="0" dy="-0.6em" style="font-size: 70%">&amp;mmv</tspan><tspan x="0" dy="1.2em" style="font-size: 70%">MOVE_RIGHT</tspan>
</text>
</g>
<g transform="translate(768, 111)" class="key keypos-22">
<rect rx="6" ry="6" x="-30" y="-30" width="60" height="60" class="key"/>
<text x="0" y="0" class="key tap">
<tspan x="0" dy="-0.6em">PG</tspan><tspan x="0" dy="1.2em">UP</tspan>
</text>
</g>
<g transform="translate(832, 104)" class="key keypos-23">
<rect rx="6" ry="6" x="-30" y="-30" width="60" height="60" class="key"/>
<text x="0" y="0" class="key tap">LEFT</text>
</g>
<g transform="translate(896, 96)" class="key keypos-24">
<rect rx="6" ry="6" x="-30" y="-30" width="60" height="60" class="key"/>
<text x="0" y="0" class="key tap">DOWN</text>
</g>
<g transform="translate(960, 104)" class="key keypos-25">
<rect rx="6" ry="6" x="-30" y="-30" width="60" height="60" class="key"/>
<text x="0" y="0" class="key tap">UP</text>
</g>
<g transform="translate(1024, 120)" class="key keypos-26">
<rect rx="6" ry="6" x="-30" y="-30" width="60" height="60" class="key"/>
<text x="0" y="0" class="key tap">RIGHT</text>
</g>
<g transform="translate(1088, 120)" class="key keypos-27">
<rect rx="6" ry="6" x="-30" y="-30" width="60" height="60" class="key"/>
<text x="0" y="0" class="key tap">`</text>
</g>
<g transform="translate(32, 184)" class="key trans keypos-28">
<rect rx="6" ry="6" x="-30" y="-30" width="60" height="60" class="key trans"/>
<text x="0" y="0" class="key trans tap">▽</text>
</g>
<g transform="translate(96, 184)" class="key keypos-29">
<rect rx="6" ry="6" x="-30" y="-30" width="60" height="60" class="key"/>
<text x="0" y="0" class="key tap">@</text>
</g>
<g transform="translate(160, 168)" class="key keypos-30">
<rect rx="6" ry="6" x="-30" y="-30" width="60" height="60" class="key"/>
<text x="0" y="0" class="key tap">]</text>
</g>
<g transform="translate(224, 160)" class="key keypos-31">
<rect rx="6" ry="6" x="-30" y="-30" width="60" height="60" class="key"/>
<text x="0" y="0" class="key tap">}</text>
</g>
<g transform="translate(288, 168)" class="key keypos-32">
<rect rx="6" ry="6" x="-30" y="-30" width="60" height="60" class="key"/>
<text x="0" y="0" class="key tap">)</text>
</g>
<g transform="translate(352, 175)" class="key keypos-33">
<rect rx="6" ry="6" x="-30" y="-30" width="60" height="60" class="key"/>
<text x="0" y="0" class="key tap">#</text>
</g>
<g transform="translate(432, 175)" class="key keypos-34">
<rect rx="6" ry="6" x="-30" y="-30" width="60" height="60" class="key"/>
<text x="0" y="0" class="key tap">MUTE</text>
</g>
<g transform="translate(624, 175)" class="key keypos-35">
<rect rx="6" ry="6" x="-30" y="-30" width="60" height="60" class="key"/>
<text x="0" y="0" class="key tap">
<tspan x="0" dy="-0.6em" style="font-size: 78%">&amp;mmv</tspan><tspan x="0" dy="1.2em" style="font-size: 78%">MOVE_DOWN</tspan>
</text>
</g>
<g transform="translate(768, 175)" class="key keypos-36">
<rect rx="6" ry="6" x="-30" y="-30" width="60" height="60" class="key"/>
<text x="0" y="0" class="key tap">
<tspan x="0" dy="-0.6em">PG</tspan><tspan x="0" dy="1.2em">DN</tspan>
</text>
</g>
<g transform="translate(832, 168)" class="key keypos-37">
<rect rx="6" ry="6" x="-30" y="-30" width="60" height="60" class="key"/>
<text x="0" y="0" class="key tap">HOME</text>
</g>
<g transform="translate(896, 160)" class="key keypos-38">
<rect rx="6" ry="6" x="-30" y="-30" width="60" height="60" class="key"/>
<text x="0" y="0" class="key tap">END</text>
</g>
<g transform="translate(960, 168)" class="key keypos-39">
<rect rx="6" ry="6" x="-30" y="-30" width="60" height="60" class="key"/>
<text x="0" y="0" class="key tap">+</text>
<text x="0" y="-26" class="key shifted">=</text>
</g>
<g transform="translate(1024, 184)" class="key keypos-40">
<rect rx="6" ry="6" x="-30" y="-30" width="60" height="60" class="key"/>
<text x="0" y="0" class="key tap">\</text>
</g>
<g transform="translate(1088, 184)" class="key keypos-41">
<rect rx="6" ry="6" x="-30" y="-30" width="60" height="60" class="key"/>
<text x="0" y="0" class="key tap">=</text>
</g>
<g transform="translate(256, 232)" class="key trans keypos-42">
<rect rx="6" ry="6" x="-30" y="-30" width="60" height="60" class="key trans"/>
<text x="0" y="0" class="key trans tap">▽</text>
</g>
<g transform="translate(326, 239) rotate(12.0)" class="key held keypos-43">
<rect rx="6" ry="6" x="-30" y="-30" width="60" height="60" class="key held"/>
</g>
<g transform="translate(398, 258) rotate(24.0)" class="key trans keypos-44">
<rect rx="6" ry="6" x="-30" y="-30" width="60" height="60" class="key trans"/>
<text x="0" y="0" class="key trans tap">▽</text>
</g>
<g transform="translate(722, 256) rotate(-24.0)" class="key trans keypos-45">
<rect rx="6" ry="6" x="-30" y="-30" width="60" height="60" class="key trans"/>
<text x="0" y="0" class="key trans tap">▽</text>
</g>
<g transform="translate(794, 239) rotate(-12.0)" class="key keypos-46">
<rect rx="6" ry="6" x="-30" y="-30" width="60" height="60" class="key"/>
<text x="0" y="0" class="key tap">DEL</text>
</g>
<g transform="translate(864, 232)" class="key trans keypos-47">
<rect rx="6" ry="6" x="-30" y="-30" width="60" height="60" class="key trans"/>
<text x="0" y="0" class="key trans tap">▽</text>
</g>
<g class="combo combopos-0">
<path d="M117,114 l-15,49" class="combo"/>
<rect rx="6" ry="6" x="103" y="101" width="28" height="26" class="combo"/>
<text x="117" y="114" class="combo tap"><tspan style="font-size: 78%">&amp;soft_off</tspan></text>
</g>
</g>
</g>
<g transform="translate(30, 712)" class="layer-Function">
<text x="0" y="28" class="label" id="Function">Function:</text>
<g transform="translate(0, 56)">
<g transform="translate(32, 56)" class="key trans keypos-0">
<rect rx="6" ry="6" x="-30" y="-30" width="60" height="60" class="key trans"/>
<text x="0" y="0" class="key trans tap">▽</text>
</g>
<g transform="translate(96, 56)" class="key keypos-1">
<rect rx="6" ry="6" x="-30" y="-30" width="60" height="60" class="key"/>
<text x="0" y="0" class="key tap">F1</text>
</g>
<g transform="translate(160, 40)" class="key keypos-2">
<rect rx="6" ry="6" x="-30" y="-30" width="60" height="60" class="key"/>
<text x="0" y="0" class="key tap">F2</text>
</g>
<g transform="translate(224, 32)" class="key keypos-3">
<rect rx="6" ry="6" x="-30" y="-30" width="60" height="60" class="key"/>
<text x="0" y="0" class="key tap">F3</text>
</g>
<g transform="translate(288, 40)" class="key keypos-4">
<rect rx="6" ry="6" x="-30" y="-30" width="60" height="60" class="key"/>
<text x="0" y="0" class="key tap">F4</text>
</g>
<g transform="translate(352, 47)" class="key keypos-5">
<rect rx="6" ry="6" x="-30" y="-30" width="60" height="60" class="key"/>
<text x="0" y="0" class="key tap">F5</text>
</g>
<g transform="translate(624, 47)" class="key keypos-6">
<rect rx="6" ry="6" x="-30" y="-30" width="60" height="60" class="key"/>
<text x="0" y="0" class="key tap">
<tspan x="0" dy="-0.6em">&amp;mmv</tspan><tspan x="0" dy="1.2em">MOVE_UP</tspan>
</text>
</g>
<g transform="translate(768, 47)" class="key keypos-7">
<rect rx="6" ry="6" x="-30" y="-30" width="60" height="60" class="key"/>
<text x="0" y="0" class="key tap">F6</text>
</g>
<g transform="translate(832, 40)" class="key keypos-8">
<rect rx="6" ry="6" x="-30" y="-30" width="60" height="60" class="key"/>
<text x="0" y="0" class="key tap">F7</text>
</g>
<g transform="translate(896, 32)" class="key keypos-9">
<rect rx="6" ry="6" x="-30" y="-30" width="60" height="60" class="key"/>
<text x="0" y="0" class="key tap">F8</text>
</g>
<g transform="translate(960, 40)" class="key keypos-10">
<rect rx="6" ry="6" x="-30" y="-30" width="60" height="60" class="key"/>
<text x="0" y="0" class="key tap">F9</text>
</g>
<g transform="translate(1024, 56)" class="key keypos-11">
<rect rx="6" ry="6" x="-30" y="-30" width="60" height="60" class="key"/>
<text x="0" y="0" class="key tap">F10</text>
</g>
<g transform="translate(1088, 56)" class="key keypos-12">
<rect rx="6" ry="6" x="-30" y="-30" width="60" height="60" class="key"/>
<text x="0" y="0" class="key tap">F11</text>
</g>
<g transform="translate(32, 120)" class="key held keypos-13">
<rect rx="6" ry="6" x="-30" y="-30" width="60" height="60" class="key held"/>
</g>
<g transform="translate(96, 120)" class="key trans keypos-14">
<rect rx="6" ry="6" x="-30" y="-30" width="60" height="60" class="key trans"/>
<text x="0" y="0" class="key trans tap">▽</text>
</g>
<g transform="translate(160, 104)" class="key keypos-15">
<rect rx="6" ry="6" x="-30" y="-30" width="60" height="60" class="key"/>
<text x="0" y="0" class="key tap">
<tspan x="0" dy="-0.6em">&amp;mkp</tspan><tspan x="0" dy="1.2em">LCLK</tspan>
</text>
</g>
<g transform="translate(224, 96)" class="key keypos-16">
<rect rx="6" ry="6" x="-30" y="-30" width="60" height="60" class="key"/>
<text x="0" y="0" class="key tap">
<tspan x="0" dy="-0.6em">&amp;mkp</tspan><tspan x="0" dy="1.2em">MCLK</tspan>
</text>
</g>
<g transform="translate(288, 104)" class="key keypos-17">
<rect rx="6" ry="6" x="-30" y="-30" width="60" height="60" class="key"/>
<text x="0" y="0" class="key tap">
<tspan x="0" dy="-0.6em">&amp;mkp</tspan><tspan x="0" dy="1.2em">RCLK</tspan>
</text>
</g>
<g transform="translate(352, 111)" class="key keypos-18">
<rect rx="6" ry="6" x="-30" y="-30" width="60" height="60" class="key"/>
<text x="0" y="0" class="key tap">
<tspan x="0" dy="-0.6em">&amp;mkp</tspan><tspan x="0" dy="1.2em">MB4</tspan>
</text>
</g>
<g transform="translate(560, 111)" class="key keypos-19">
<rect rx="6" ry="6" x="-30" y="-30" width="60" height="60" class="key"/>
<text x="0" y="0" class="key tap">
<tspan x="0" dy="-0.6em" style="font-size: 78%">&amp;mmv</tspan><tspan x="0" dy="1.2em" style="font-size: 78%">MOVE_LEFT</tspan>
</text>
</g>
<g transform="translate(624, 111)" class="key keypos-20">
<rect rx="6" ry="6" x="-30" y="-30" width="60" height="60" class="key"/>
<text x="0" y="0" class="key tap">
<tspan x="0" dy="-0.6em">&amp;mkp</tspan><tspan x="0" dy="1.2em">LCLK</tspan>
</text>
</g>
<g transform="translate(688, 111)" class="key keypos-21">
<rect rx="6" ry="6" x="-30" y="-30" width="60" height="60" class="key"/>
<text x="0" y="0" class="key tap">
<tspan x="0" dy="-0.6em" style="font-size: 70%">&amp;mmv</tspan><tspan x="0" dy="1.2em" style="font-size: 70%">MOVE_RIGHT</tspan>
</text>
</g>
<g transform="translate(768, 111)" class="key keypos-22">
<rect rx="6" ry="6" x="-30" y="-30" width="60" height="60" class="key"/>
<text x="0" y="0" class="key tap"><tspan style="font-size: 64%">&amp;bootloader</tspan></text>
</g>
<g transform="translate(832, 104)" class="key keypos-23">
<rect rx="6" ry="6" x="-30" y="-30" width="60" height="60" class="key"/>
<text x="0" y="0" class="key tap">
<tspan x="0" dy="-0.6em">&amp;mkp</tspan><tspan x="0" dy="1.2em">LCLK</tspan>
</text>
</g>
<g transform="translate(896, 96)" class="key keypos-24">
<rect rx="6" ry="6" x="-30" y="-30" width="60" height="60" class="key"/>
<text x="0" y="0" class="key tap">
<tspan x="0" dy="-0.6em">&amp;mkp</tspan><tspan x="0" dy="1.2em">MCLK</tspan>
</text>
</g>
<g transform="translate(960, 104)" class="key keypos-25">
<rect rx="6" ry="6" x="-30" y="-30" width="60" height="60" class="key"/>
<text x="0" y="0" class="key tap">
<tspan x="0" dy="-0.6em">&amp;mkp</tspan><tspan x="0" dy="1.2em">RCLK</tspan>
</text>
</g>
<g transform="translate(1024, 120)" class="key keypos-26">
<rect rx="6" ry="6" x="-30" y="-30" width="60" height="60" class="key"/>
<text x="0" y="0" class="key tap"><tspan style="font-size: 64%">PRINTSCREEN</tspan></text>
</g>
<g transform="translate(1088, 120)" class="key keypos-27">
<rect rx="6" ry="6" x="-30" y="-30" width="60" height="60" class="key"/>
<text x="0" y="0" class="key tap">F12</text>
</g>
<g transform="translate(32, 184)" class="key trans keypos-28">
<rect rx="6" ry="6" x="-30" y="-30" width="60" height="60" class="key trans"/>
<text x="0" y="0" class="key trans tap">▽</text>
</g>
<g transform="translate(96, 184)" class="key keypos-29">
<rect rx="6" ry="6" x="-30" y="-30" width="60" height="60" class="key"/>
<text x="0" y="0" class="key tap"><tspan style="font-size: 70%">&amp;sys_reset</tspan></text>
</g>
<g transform="translate(160, 168)" class="key trans keypos-30">
<rect rx="6" ry="6" x="-30" y="-30" width="60" height="60" class="key trans"/>
<text x="0" y="0" class="key trans tap">▽</text>
</g>
<g transform="translate(224, 160)" class="key keypos-31">
<rect rx="6" ry="6" x="-30" y="-30" width="60" height="60" class="key"/>
<text x="0" y="0" class="key tap"><tspan style="font-size: 64%">&amp;bootloader</tspan></text>
</g>
<g transform="translate(288, 168)" class="key trans keypos-32">
<rect rx="6" ry="6" x="-30" y="-30" width="60" height="60" class="key trans"/>
<text x="0" y="0" class="key trans tap">▽</text>
</g>
<g transform="translate(352, 175)" class="key keypos-33">
<rect rx="6" ry="6" x="-30" y="-30" width="60" height="60" class="key"/>
<text x="0" y="0" class="key tap">
<tspan x="0" dy="-0.6em">&amp;mkp</tspan><tspan x="0" dy="1.2em">MB5</tspan>
</text>
</g>
<g transform="translate(432, 175)" class="key keypos-34">
<rect rx="6" ry="6" x="-30" y="-30" width="60" height="60" class="key"/>
<text x="0" y="0" class="key tap">MUTE</text>
</g>
<g transform="translate(624, 175)" class="key keypos-35">
<rect rx="6" ry="6" x="-30" y="-30" width="60" height="60" class="key"/>
<text x="0" y="0" class="key tap">
<tspan x="0" dy="-0.6em" style="font-size: 78%">&amp;mmv</tspan><tspan x="0" dy="1.2em" style="font-size: 78%">MOVE_DOWN</tspan>
</text>
</g>
<g transform="translate(768, 175)" class="key trans keypos-36">
<rect rx="6" ry="6" x="-30" y="-30" width="60" height="60" class="key trans"/>
<text x="0" y="0" class="key trans tap">▽</text>
</g>
<g transform="translate(832, 168)" class="key trans keypos-37">
<rect rx="6" ry="6" x="-30" y="-30" width="60" height="60" class="key trans"/>
<text x="0" y="0" class="key trans tap">▽</text>
</g>
<g transform="translate(896, 160)" class="key keypos-38">
<rect rx="6" ry="6" x="-30" y="-30" width="60" height="60" class="key"/>
<text x="0" y="0" class="key tap"><tspan style="font-size: 64%">&amp;bootloader</tspan></text>
</g>
<g transform="translate(960, 168)" class="key keypos-39">
<rect rx="6" ry="6" x="-30" y="-30" width="60" height="60" class="key"/>
<text x="0" y="0" class="key tap"><tspan style="font-size: 70%">&amp;sys_reset</tspan></text>
</g>
<g transform="translate(1024, 184)" class="key keypos-40">
<rect rx="6" ry="6" x="-30" y="-30" width="60" height="60" class="key"/>
<text x="0" y="0" class="key tap"><tspan style="font-size: 70%">SCROLLLOCK</tspan></text>
</g>
<g transform="translate(1088, 184)" class="key keypos-41">
<rect rx="6" ry="6" x="-30" y="-30" width="60" height="60" class="key"/>
<text x="0" y="0" class="key tap">
<tspan x="0" dy="-0.6em">PAUSE</tspan><tspan x="0" dy="1.2em">BREAK</tspan>
</text>
</g>
<g transform="translate(256, 232)" class="key trans keypos-42">
<rect rx="6" ry="6" x="-30" y="-30" width="60" height="60" class="key trans"/>
<text x="0" y="0" class="key trans tap">▽</text>
</g>
<g transform="translate(326, 239) rotate(12.0)" class="key trans keypos-43">
<rect rx="6" ry="6" x="-30" y="-30" width="60" height="60" class="key trans"/>
<text x="0" y="0" class="key trans tap">▽</text>
</g>
<g transform="translate(398, 258) rotate(24.0)" class="key trans keypos-44">
<rect rx="6" ry="6" x="-30" y="-30" width="60" height="60" class="key trans"/>
<text x="0" y="0" class="key trans tap">▽</text>
</g>
<g transform="translate(722, 256) rotate(-24.0)" class="key trans keypos-45">
<rect rx="6" ry="6" x="-30" y="-30" width="60" height="60" class="key trans"/>
<text x="0" y="0" class="key trans tap">▽</text>
</g>
<g transform="translate(794, 239) rotate(-12.0)" class="key trans keypos-46">
<rect rx="6" ry="6" x="-30" y="-30" width="60" height="60" class="key trans"/>
<text x="0" y="0" class="key trans tap">▽</text>
</g>
<g transform="translate(864, 232)" class="key trans keypos-47">
<rect rx="6" ry="6" x="-30" y="-30" width="60" height="60" class="key trans"/>
<text x="0" y="0" class="key trans tap">▽</text>
</g>
<g class="combo combopos-0">
<path d="M117,114 l-15,49" class="combo"/>
<rect rx="6" ry="6" x="103" y="101" width="28" height="26" class="combo"/>
<text x="117" y="114" class="combo tap"><tspan style="font-size: 78%">&amp;soft_off</tspan></text>
</g>
</g>
</g>
<g transform="translate(30, 1068)" class="layer-System">
<text x="0" y="28" class="label" id="System">System:</text>
<g transform="translate(0, 56)">
<g transform="translate(32, 56)" class="key trans keypos-0">
<rect rx="6" ry="6" x="-30" y="-30" width="60" height="60" class="key trans"/>
<text x="0" y="0" class="key trans tap">▽</text>
</g>
<g transform="translate(96, 56)" class="key held keypos-1">
<rect rx="6" ry="6" x="-30" y="-30" width="60" height="60" class="key held"/>
</g>
<g transform="translate(160, 40)" class="key keypos-2">
<rect rx="6" ry="6" x="-30" y="-30" width="60" height="60" class="key"/>
<text x="0" y="0" class="key tap">
<tspan x="0" dy="-0.6em">OUT</tspan><tspan x="0" dy="1.2em">TOG</tspan>
</text>
</g>
<g transform="translate(224, 32)" class="key keypos-3">
<rect rx="6" ry="6" x="-30" y="-30" width="60" height="60" class="key"/>
<text x="0" y="0" class="key tap">
<tspan x="0" dy="-0.6em">BRI</tspan><tspan x="0" dy="1.2em">DN</tspan>
</text>
</g>
<g transform="translate(288, 40)" class="key keypos-4">
<rect rx="6" ry="6" x="-30" y="-30" width="60" height="60" class="key"/>
<text x="0" y="0" class="key tap">
<tspan x="0" dy="-0.6em">BRI</tspan><tspan x="0" dy="1.2em">UP</tspan>
</text>
</g>
<g transform="translate(352, 47)" class="key keypos-5">
<rect rx="6" ry="6" x="-30" y="-30" width="60" height="60" class="key"/>
<text x="0" y="0" class="key tap">PP</text>
</g>
<g transform="translate(624, 47)" class="key keypos-6">
<rect rx="6" ry="6" x="-30" y="-30" width="60" height="60" class="key"/>
<text x="0" y="0" class="key tap">
<tspan x="0" dy="-0.6em">&amp;mmv</tspan><tspan x="0" dy="1.2em">MOVE_UP</tspan>
</text>
</g>
<g transform="translate(768, 47)" class="key keypos-7">
<rect rx="6" ry="6" x="-30" y="-30" width="60" height="60" class="key"/>
<text x="0" y="0" class="key tap">NEXT</text>
</g>
<g transform="translate(832, 40)" class="key keypos-8">
<rect rx="6" ry="6" x="-30" y="-30" width="60" height="60" class="key"/>
<text x="0" y="0" class="key tap">
<tspan x="0" dy="-0.6em">VOL</tspan><tspan x="0" dy="1.2em">UP</tspan>
</text>
</g>
<g transform="translate(896, 32)" class="key keypos-9">
<rect rx="6" ry="6" x="-30" y="-30" width="60" height="60" class="key"/>
<text x="0" y="0" class="key tap">
<tspan x="0" dy="-0.6em">VOL</tspan><tspan x="0" dy="1.2em">DN</tspan>
</text>
</g>
<g transform="translate(960, 40)" class="key trans keypos-10">
<rect rx="6" ry="6" x="-30" y="-30" width="60" height="60" class="key trans"/>
<text x="0" y="0" class="key trans tap">▽</text>
</g>
<g transform="translate(1024, 56)" class="key trans keypos-11">
<rect rx="6" ry="6" x="-30" y="-30" width="60" height="60" class="key trans"/>
<text x="0" y="0" class="key trans tap">▽</text>
</g>
<g transform="translate(1088, 56)" class="key trans keypos-12">
<rect rx="6" ry="6" x="-30" y="-30" width="60" height="60" class="key trans"/>
<text x="0" y="0" class="key trans tap">▽</text>
</g>
<g transform="translate(32, 120)" class="key trans keypos-13">
<rect rx="6" ry="6" x="-30" y="-30" width="60" height="60" class="key trans"/>
<text x="0" y="0" class="key trans tap">▽</text>
</g>
<g transform="translate(96, 120)" class="key keypos-14">
<rect rx="6" ry="6" x="-30" y="-30" width="60" height="60" class="key"/>
<text x="0" y="0" class="key tap">
<tspan x="0" dy="-1.2em">BT</tspan><tspan x="0" dy="1.2em">CLR</tspan><tspan x="0" dy="1.2em">ALL</tspan>
</text>
</g>
<g transform="translate(160, 104)" class="key keypos-15">
<rect rx="6" ry="6" x="-30" y="-30" width="60" height="60" class="key"/>
<text x="0" y="0" class="key tap">BT</text>
<text x="0" y="26" class="key hold">0</text>
</g>
<g transform="translate(224, 96)" class="key keypos-16">
<rect rx="6" ry="6" x="-30" y="-30" width="60" height="60" class="key"/>
<text x="0" y="0" class="key tap">BT</text>
<text x="0" y="26" class="key hold">1</text>
</g>
<g transform="translate(288, 104)" class="key keypos-17">
<rect rx="6" ry="6" x="-30" y="-30" width="60" height="60" class="key"/>
<text x="0" y="0" class="key tap">BT</text>
<text x="0" y="26" class="key hold">2</text>
</g>
<g transform="translate(352, 111)" class="key keypos-18">
<rect rx="6" ry="6" x="-30" y="-30" width="60" height="60" class="key"/>
<text x="0" y="0" class="key tap">BT</text>
<text x="0" y="26" class="key hold">3</text>
</g>
<g transform="translate(560, 111)" class="key keypos-19">
<rect rx="6" ry="6" x="-30" y="-30" width="60" height="60" class="key"/>
<text x="0" y="0" class="key tap">
<tspan x="0" dy="-0.6em" style="font-size: 78%">&amp;mmv</tspan><tspan x="0" dy="1.2em" style="font-size: 78%">MOVE_LEFT</tspan>
</text>
</g>
<g transform="translate(624, 111)" class="key keypos-20">
<rect rx="6" ry="6" x="-30" y="-30" width="60" height="60" class="key"/>
<text x="0" y="0" class="key tap">
<tspan x="0" dy="-0.6em">&amp;mkp</tspan><tspan x="0" dy="1.2em">LCLK</tspan>
</text>
</g>
<g transform="translate(688, 111)" class="key keypos-21">
<rect rx="6" ry="6" x="-30" y="-30" width="60" height="60" class="key"/>
<text x="0" y="0" class="key tap">
<tspan x="0" dy="-0.6em" style="font-size: 70%">&amp;mmv</tspan><tspan x="0" dy="1.2em" style="font-size: 70%">MOVE_RIGHT</tspan>
</text>
</g>
<g transform="translate(768, 111)" class="key trans keypos-22">
<rect rx="6" ry="6" x="-30" y="-30" width="60" height="60" class="key trans"/>
<text x="0" y="0" class="key trans tap">▽</text>
</g>
<g transform="translate(832, 104)" class="key trans keypos-23">
<rect rx="6" ry="6" x="-30" y="-30" width="60" height="60" class="key trans"/>
<text x="0" y="0" class="key trans tap">▽</text>
</g>
<g transform="translate(896, 96)" class="key trans keypos-24">
<rect rx="6" ry="6" x="-30" y="-30" width="60" height="60" class="key trans"/>
<text x="0" y="0" class="key trans tap">▽</text>
</g>
<g transform="translate(960, 104)" class="key trans keypos-25">
<rect rx="6" ry="6" x="-30" y="-30" width="60" height="60" class="key trans"/>
<text x="0" y="0" class="key trans tap">▽</text>
</g>
<g transform="translate(1024, 120)" class="key trans keypos-26">
<rect rx="6" ry="6" x="-30" y="-30" width="60" height="60" class="key trans"/>
<text x="0" y="0" class="key trans tap">▽</text>
</g>
<g transform="translate(1088, 120)" class="key trans keypos-27">
<rect rx="6" ry="6" x="-30" y="-30" width="60" height="60" class="key trans"/>
<text x="0" y="0" class="key trans tap">▽</text>
</g>
<g transform="translate(32, 184)" class="key trans keypos-28">
<rect rx="6" ry="6" x="-30" y="-30" width="60" height="60" class="key trans"/>
<text x="0" y="0" class="key trans tap">▽</text>
</g>
<g transform="translate(96, 184)" class="key keypos-29">
<rect rx="6" ry="6" x="-30" y="-30" width="60" height="60" class="key"/>
<text x="0" y="0" class="key tap">
<tspan x="0" dy="-0.6em">RGB</tspan><tspan x="0" dy="1.2em">OFF</tspan>
</text>
</g>
<g transform="translate(160, 168)" class="key keypos-30">
<rect rx="6" ry="6" x="-30" y="-30" width="60" height="60" class="key"/>
<text x="0" y="0" class="key tap">
<tspan x="0" dy="-0.6em">RGB</tspan><tspan x="0" dy="1.2em">ON</tspan>
</text>
</g>
<g transform="translate(224, 160)" class="key trans keypos-31">
<rect rx="6" ry="6" x="-30" y="-30" width="60" height="60" class="key trans"/>
<text x="0" y="0" class="key trans tap">▽</text>
</g>
<g transform="translate(288, 168)" class="key trans keypos-32">
<rect rx="6" ry="6" x="-30" y="-30" width="60" height="60" class="key trans"/>
<text x="0" y="0" class="key trans tap">▽</text>
</g>
<g transform="translate(352, 175)" class="key keypos-33">
<rect rx="6" ry="6" x="-30" y="-30" width="60" height="60" class="key"/>
<text x="0" y="0" class="key tap">
<tspan x="0" dy="-0.6em">RGB</tspan><tspan x="0" dy="1.2em">EFF</tspan>
</text>
</g>
<g transform="translate(432, 175)" class="key keypos-34">
<rect rx="6" ry="6" x="-30" y="-30" width="60" height="60" class="key"/>
<text x="0" y="0" class="key tap">MUTE</text>
</g>
<g transform="translate(624, 175)" class="key keypos-35">
<rect rx="6" ry="6" x="-30" y="-30" width="60" height="60" class="key"/>
<text x="0" y="0" class="key tap">
<tspan x="0" dy="-0.6em" style="font-size: 78%">&amp;mmv</tspan><tspan x="0" dy="1.2em" style="font-size: 78%">MOVE_DOWN</tspan>
</text>
</g>
<g transform="translate(768, 175)" class="key keypos-36">
<rect rx="6" ry="6" x="-30" y="-30" width="60" height="60" class="key"/>
<text x="0" y="0" class="key tap">
<tspan x="0" dy="-0.6em">RGB</tspan><tspan x="0" dy="1.2em">EFR</tspan>
</text>
</g>
<g transform="translate(832, 168)" class="key keypos-37">
<rect rx="6" ry="6" x="-30" y="-30" width="60" height="60" class="key"/>
<text x="0" y="0" class="key tap">
<tspan x="0" dy="-0.6em">RGB</tspan><tspan x="0" dy="1.2em">SPI</tspan>
</text>
</g>
<g transform="translate(896, 160)" class="key keypos-38">
<rect rx="6" ry="6" x="-30" y="-30" width="60" height="60" class="key"/>
<text x="0" y="0" class="key tap">
<tspan x="0" dy="-0.6em">RGB</tspan><tspan x="0" dy="1.2em">BRI</tspan>
</text>
</g>
<g transform="translate(960, 168)" class="key keypos-39">
<rect rx="6" ry="6" x="-30" y="-30" width="60" height="60" class="key"/>
<text x="0" y="0" class="key tap">
<tspan x="0" dy="-0.6em">RGB</tspan><tspan x="0" dy="1.2em">BRD</tspan>
</text>
</g>
<g transform="translate(1024, 184)" class="key trans keypos-40">
<rect rx="6" ry="6" x="-30" y="-30" width="60" height="60" class="key trans"/>
<text x="0" y="0" class="key trans tap">▽</text>
</g>
<g transform="translate(1088, 184)" class="key trans keypos-41">
<rect rx="6" ry="6" x="-30" y="-30" width="60" height="60" class="key trans"/>
<text x="0" y="0" class="key trans tap">▽</text>
</g>
<g transform="translate(256, 232)" class="key trans keypos-42">
<rect rx="6" ry="6" x="-30" y="-30" width="60" height="60" class="key trans"/>
<text x="0" y="0" class="key trans tap">▽</text>
</g>
<g transform="translate(326, 239) rotate(12.0)" class="key trans keypos-43">
<rect rx="6" ry="6" x="-30" y="-30" width="60" height="60" class="key trans"/>
<text x="0" y="0" class="key trans tap">▽</text>
</g>
<g transform="translate(398, 258) rotate(24.0)" class="key trans keypos-44">
<rect rx="6" ry="6" x="-30" y="-30" width="60" height="60" class="key trans"/>
<text x="0" y="0" class="key trans tap">▽</text>
</g>
<g transform="translate(722, 256) rotate(-24.0)" class="key trans keypos-45">
<rect rx="6" ry="6" x="-30" y="-30" width="60" height="60" class="key trans"/>
<text x="0" y="0" class="key trans tap">▽</text>
</g>
<g transform="translate(794, 239) rotate(-12.0)" class="key trans keypos-46">
<rect rx="6" ry="6" x="-30" y="-30" width="60" height="60" class="key trans"/>
<text x="0" y="0" class="key trans tap">▽</text>
</g>
<g transform="translate(864, 232)" class="key trans keypos-47">
<rect rx="6" ry="6" x="-30" y="-30" width="60" height="60" class="key trans"/>
<text x="0" y="0" class="key trans tap">▽</text>
</g>
<g class="combo combopos-0">
<path d="M117,114 l-15,49" class="combo"/>
<rect rx="6" ry="6" x="103" y="101" width="28" height="26" class="combo"/>
<text x="117" y="114" class="combo tap"><tspan style="font-size: 78%">&amp;soft_off</tspan></text>
</g>
</g>
</g>
</svg>
