<svg width="1020" height="1752" viewBox="0 0 1020 1752" class="keymap" xmlns="http://www.w3.org/2000/svg" xmlns:xlink="http://www.w3.org/1999/xlink">
<style>.background { fill: #1a1b26; }
.key { fill: #292e42; stroke: #3b4261; stroke-width: 1; }
.key.held { fill: #3b4261; stroke: #e0af68; stroke-width: 1; }
.key.ghost { stroke-dasharray: 4,4; stroke: #565f89; stroke-width: 1; }
.keycode { font-size: 9px; font-family: monospace; fill: #c0caf5; text-anchor: middle; dominant-baseline: middle; }
.tap { font-size: 11px; }
.hold { font-size: 8px; fill: #a9b1d6; }
.shifted { font-size: 8px; fill: #a9b1d6; }
.layer { font-size: 14px; font-weight: bold; fill: #c0caf5; }
.combo { fill: #bb9af7; stroke: #3b4261; stroke-width: 1; }
</style>
<g transform="translate(30, 0)" class="layer-L0">
<text x="0" y="28" class="label" id="L0">L0:</text>
<g transform="translate(0, 56)">
<g transform="translate(32, 56)" class="key keypos-0">
<rect rx="6" ry="6" x="-30" y="-30" width="60" height="60" class="key"/>
<text x="0" y="2" class="key tap">F1</text>
</g>
<g transform="translate(96, 56)" class="key keypos-1">
<rect rx="6" ry="6" x="-30" y="-30" width="60" height="60" class="key"/>
<text x="0" y="2" class="key tap">F2</text>
</g>
<g transform="translate(160, 40)" class="key keypos-2">
<rect rx="6" ry="6" x="-30" y="-30" width="60" height="60" class="key"/>
<text x="0" y="2" class="key tap">F3</text>
</g>
<g transform="translate(224, 32)" class="key keypos-3">
<rect rx="6" ry="6" x="-30" y="-30" width="60" height="60" class="key"/>
<text x="0" y="2" class="key tap">F4</text>
</g>
<g transform="translate(288, 40)" class="key keypos-4">
<rect rx="6" ry="6" x="-30" y="-30" width="60" height="60" class="key"/>
<text x="0" y="2" class="key tap">F5</text>
</g>
<g transform="translate(352, 48)" class="key keypos-5">
<rect rx="6" ry="6" x="-30" y="-30" width="60" height="60" class="key"/>
<text x="0" y="2" class="key tap">F6</text>
</g>
<g transform="translate(608, 48)" class="key keypos-6">
<rect rx="6" ry="6" x="-30" y="-30" width="60" height="60" class="key"/>
<text x="0" y="2" class="key tap">F7</text>
</g>
<g transform="translate(672, 40)" class="key keypos-7">
<rect rx="6" ry="6" x="-30" y="-30" width="60" height="60" class="key"/>
<text x="0" y="2" class="key tap">F8</text>
</g>
<g transform="translate(736, 32)" class="key keypos-8">
<rect rx="6" ry="6" x="-30" y="-30" width="60" height="60" class="key"/>
<text x="0" y="2" class="key tap">F9</text>
</g>
<g transform="translate(800, 40)" class="key keypos-9">
<rect rx="6" ry="6" x="-30" y="-30" width="60" height="60" class="key"/>
<text x="0" y="2" class="key tap">F10</text>
</g>
<g transform="translate(864, 56)" class="key keypos-10">
<rect rx="6" ry="6" x="-30" y="-30" width="60" height="60" class="key"/>
<text x="0" y="2" class="key tap">F11</text>
</g>
<g transform="translate(928, 56)" class="key keypos-11">
<rect rx="6" ry="6" x="-30" y="-30" width="60" height="60" class="key"/>
<text x="0" y="2" class="key tap">F12</text>
</g>
<g transform="translate(32, 120)" class="key keypos-12">
<rect rx="6" ry="6" x="-30" y="-30" width="60" height="60" class="key"/>
<text x="0" y="2" class="key tap">ESC</text>
<text x="0" y="26" class="key hold">LGUI</text>
</g>
<g transform="translate(96, 120)" class="key keypos-13">
<rect rx="6" ry="6" x="-30" y="-30" width="60" height="60" class="key"/>
<text x="0" y="2" class="key tap">B</text>
<a href="#L3">
<text x="0" y="26" class="key hold layer-activator">L3</text>
</a></g>
<g transform="translate(160, 104)" class="key keypos-14">
<rect rx="6" ry="6" x="-30" y="-30" width="60" height="60" class="key"/>
<text x="0" y="2" class="key tap">L</text>
</g>
<g transform="translate(224, 96)" class="key keypos-15">
<rect rx="6" ry="6" x="-30" y="-30" width="60" height="60" class="key"/>
<text x="0" y="2" class="key tap">D</text>
</g>
<g transform="translate(288, 104)" class="key keypos-16">
<rect rx="6" ry="6" x="-30" y="-30" width="60" height="60" class="key"/>
<text x="0" y="2" class="key tap">W</text>
</g>
<g transform="translate(352, 112)" class="key keypos-17">
<rect rx="6" ry="6" x="-30" y="-30" width="60" height="60" class="key"/>
<text x="0" y="2" class="key tap">Z</text>
</g>
<g transform="translate(608, 112)" class="key keypos-18">
<rect rx="6" ry="6" x="-30" y="-30" width="60" height="60" class="key"/>
<text x="0" y="2" class="key tap">;</text>
</g>
<g transform="translate(672, 104)" class="key keypos-19">
<rect rx="6" ry="6" x="-30" y="-30" width="60" height="60" class="key"/>
<text x="0" y="2" class="key tap">F</text>
</g>
<g transform="translate(736, 96)" class="key keypos-20">
<rect rx="6" ry="6" x="-30" y="-30" width="60" height="60" class="key"/>
<text x="0" y="2" class="key tap">O</text>
</g>
<g transform="translate(800, 104)" class="key keypos-21">
<rect rx="6" ry="6" x="-30" y="-30" width="60" height="60" class="key"/>
<text x="0" y="2" class="key tap">U</text>
</g>
<g transform="translate(864, 120)" class="key keypos-22">
<rect rx="6" ry="6" x="-30" y="-30" width="60" height="60" class="key"/>
<text x="0" y="2" class="key tap">J</text>
</g>
<g transform="translate(928, 120)" class="key keypos-23">
<rect rx="6" ry="6" x="-30" y="-30" width="60" height="60" class="key"/>
<text x="0" y="2" class="key tap">RSFT</text>
</g>
<g transform="translate(32, 184)" class="key keypos-24">
<rect rx="6" ry="6" x="-30" y="-30" width="60" height="60" class="key"/>
<text x="0" y="2" class="key tap">TAB</text>
<a href="#L2">
<text x="0" y="26" class="key hold layer-activator">L2</text>
</a></g>
<g transform="translate(96, 184)" class="key keypos-25">
<rect rx="6" ry="6" x="-30" y="-30" width="60" height="60" class="key"/>
<text x="0" y="2" class="key tap">N</text>
</g>
<g transform="translate(160, 168)" class="key keypos-26">
<rect rx="6" ry="6" x="-30" y="-30" width="60" height="60" class="key"/>
<text x="0" y="2" class="key tap">R</text>
</g>
<g transform="translate(224, 160)" class="key keypos-27">
<rect rx="6" ry="6" x="-30" y="-30" width="60" height="60" class="key"/>
<text x="0" y="2" class="key tap">T</text>
</g>
<g transform="translate(288, 168)" class="key keypos-28">
<rect rx="6" ry="6" x="-30" y="-30" width="60" height="60" class="key"/>
<text x="0" y="2" class="key tap">S</text>
</g>
<g transform="translate(352, 176)" class="key keypos-29">
<rect rx="6" ry="6" x="-30" y="-30" width="60" height="60" class="key"/>
<text x="0" y="2" class="key tap">G</text>
</g>
<g transform="translate(608, 176)" class="key keypos-30">
<rect rx="6" ry="6" x="-30" y="-30" width="60" height="60" class="key"/>
<text x="0" y="2" class="key tap">Y</text>
</g>
<g transform="translate(672, 168)" class="key keypos-31">
<rect rx="6" ry="6" x="-30" y="-30" width="60" height="60" class="key"/>
<text x="0" y="2" class="key tap">H</text>
</g>
<g transform="translate(736, 160)" class="key keypos-32">
<rect rx="6" ry="6" x="-30" y="-30" width="60" height="60" class="key"/>
<text x="0" y="2" class="key tap">A</text>
</g>
<g transform="translate(800, 168)" class="key keypos-33">
<rect rx="6" ry="6" x="-30" y="-30" width="60" height="60" class="key"/>
<text x="0" y="2" class="key tap">E</text>
</g>
<g transform="translate(864, 184)" class="key keypos-34">
<rect rx="6" ry="6" x="-30" y="-30" width="60" height="60" class="key"/>
<text x="0" y="2" class="key tap">I</text>
</g>
<g transform="translate(928, 184)" class="key keypos-35">
<rect rx="6" ry="6" x="-30" y="-30" width="60" height="60" class="key"/>
<text x="0" y="2" class="key tap">&#x27;</text>
</g>
<g transform="translate(32, 248)" class="key keypos-36">
<rect rx="6" ry="6" x="-30" y="-30" width="60" height="60" class="key"/>
<text x="0" y="2" class="key tap">LSFT</text>
</g>
<g transform="translate(96, 248)" class="key keypos-37">
<rect rx="6" ry="6" x="-30" y="-30" width="60" height="60" class="key"/>
<text x="0" y="2" class="key tap">Q</text>
</g>
<g transform="translate(160, 232)" class="key keypos-38">
<rect rx="6" ry="6" x="-30" y="-30" width="60" height="60" class="key"/>
<text x="0" y="2" class="key tap">X</text>
</g>
<g transform="translate(224, 224)" class="key keypos-39">
<rect rx="6" ry="6" x="-30" y="-30" width="60" height="60" class="key"/>
<text x="0" y="2" class="key tap">M</text>
</g>
<g transform="translate(288, 232)" class="key keypos-40">
<rect rx="6" ry="6" x="-30" y="-30" width="60" height="60" class="key"/>
<text x="0" y="2" class="key tap">C</text>
</g>
<g transform="translate(352, 240)" class="key keypos-41">
<rect rx="6" ry="6" x="-30" y="-30" width="60" height="60" class="key"/>
<text x="0" y="2" class="key tap">V</text>
</g>
<g transform="translate(426, 272)" class="key keypos-42">
<rect rx="6" ry="6" x="-30" y="-30" width="60" height="60" class="key"/>
</g>
<g transform="translate(534, 272)" class="key keypos-43">
<rect rx="6" ry="6" x="-30" y="-30" width="60" height="60" class="key"/>
</g>
<g transform="translate(608, 240)" class="key keypos-44">
<rect rx="6" ry="6" x="-30" y="-30" width="60" height="60" class="key"/>
<text x="0" y="2" class="key tap">K</text>
</g>
<g transform="translate(672, 232)" class="key keypos-45">
<rect rx="6" ry="6" x="-30" y="-30" width="60" height="60" class="key"/>
<text x="0" y="2" class="key tap">P</text>
</g>
<g transform="translate(736, 224)" class="key keypos-46">
<rect rx="6" ry="6" x="-30" y="-30" width="60" height="60" class="key"/>
<text x="0" y="2" class="key tap">.</text>
</g>
<g transform="translate(800, 232)" class="key keypos-47">
<rect rx="6" ry="6" x="-30" y="-30" width="60" height="60" class="key"/>
<text x="0" y="2" class="key tap">-</text>
</g>
<g transform="translate(864, 248)" class="key keypos-48">
<rect rx="6" ry="6" x="-30" y="-30" width="60" height="60" class="key"/>
<text x="0" y="2" class="key tap">/</text>
</g>
<g transform="translate(928, 248)" class="key keypos-49">
<rect rx="6" ry="6" x="-30" y="-30" width="60" height="60" class="key"/>
<text x="0" y="2" class="key tap">,</text>
</g>
<g transform="translate(256, 304)" class="key keypos-50">
<rect rx="6" ry="6" x="-30" y="-30" width="60" height="60" class="key"/>
<text x="0" y="2" class="key tap">LCTL</text>
</g>
<g transform="translate(320, 312)" class="key keypos-51">
<rect rx="6" ry="6" x="-30" y="-30" width="60" height="60" class="key"/>
<a href="#L1">
<text x="0" y="2" class="key tap layer-activator">L1</text>
</a></g>
<g transform="translate(390, 336)" class="key keypos-52">
<rect rx="6" ry="6" x="-30" y="-30" width="60" height="60" class="key"/>
<text x="0" y="2" class="key tap">SPC</text>
</g>
<g transform="translate(570, 336)" class="key keypos-53">
<rect rx="6" ry="6" x="-30" y="-30" width="60" height="60" class="key"/>
<text x="0" y="2" class="key tap">ENT</text>
</g>
<g transform="translate(640, 312)" class="key keypos-54">
<rect rx="6" ry="6" x="-30" y="-30" width="60" height="60" class="key"/>
<text x="0" y="2" class="key tap">BSPC</text>
</g>
<g transform="translate(704, 304)" class="key keypos-55">
<rect rx="6" ry="6" x="-30" y="-30" width="60" height="60" class="key"/>
<text x="0" y="2" class="key tap">LALT</text>
</g>
</g>
</g>
<g transform="translate(30, 424)" class="layer-L1">
<text x="0" y="28" class="label" id="L1">L1:</text>
<g transform="translate(0, 56)">
<g transform="translate(32, 56)" class="key trans keypos-0">
<rect rx="6" ry="6" x="-30" y="-30" width="60" height="60" class="key trans"/>
<text x="0" y="2" class="key trans tap">▽</text>
</g>
<g transform="translate(96, 56)" class="key trans keypos-1">
<rect rx="6" ry="6" x="-30" y="-30" width="60" height="60" class="key trans"/>
<text x="0" y="2" class="key trans tap">▽</text>
</g>
<g transform="translate(160, 40)" class="key trans keypos-2">
<rect rx="6" ry="6" x="-30" y="-30" width="60" height="60" class="key trans"/>
<text x="0" y="2" class="key trans tap">▽</text>
</g>
<g transform="translate(224, 32)" class="key trans keypos-3">
<rect rx="6" ry="6" x="-30" y="-30" width="60" height="60" class="key trans"/>
<text x="0" y="2" class="key trans tap">▽</text>
</g>
<g transform="translate(288, 40)" class="key trans keypos-4">
<rect rx="6" ry="6" x="-30" y="-30" width="60" height="60" class="key trans"/>
<text x="0" y="2" class="key trans tap">▽</text>
</g>
<g transform="translate(352, 48)" class="key trans keypos-5">
<rect rx="6" ry="6" x="-30" y="-30" width="60" height="60" class="key trans"/>
<text x="0" y="2" class="key trans tap">▽</text>
</g>
<g transform="translate(608, 48)" class="key trans keypos-6">
<rect rx="6" ry="6" x="-30" y="-30" width="60" height="60" class="key trans"/>
<text x="0" y="2" class="key trans tap">▽</text>
</g>
<g transform="translate(672, 40)" class="key trans keypos-7">
<rect rx="6" ry="6" x="-30" y="-30" width="60" height="60" class="key trans"/>
<text x="0" y="2" class="key trans tap">▽</text>
</g>
<g transform="translate(736, 32)" class="key trans keypos-8">
<rect rx="6" ry="6" x="-30" y="-30" width="60" height="60" class="key trans"/>
<text x="0" y="2" class="key trans tap">▽</text>
</g>
<g transform="translate(800, 40)" class="key trans keypos-9">
<rect rx="6" ry="6" x="-30" y="-30" width="60" height="60" class="key trans"/>
<text x="0" y="2" class="key trans tap">▽</text>
</g>
<g transform="translate(864, 56)" class="key trans keypos-10">
<rect rx="6" ry="6" x="-30" y="-30" width="60" height="60" class="key trans"/>
<text x="0" y="2" class="key trans tap">▽</text>
</g>
<g transform="translate(928, 56)" class="key trans keypos-11">
<rect rx="6" ry="6" x="-30" y="-30" width="60" height="60" class="key trans"/>
<text x="0" y="2" class="key trans tap">▽</text>
</g>
<g transform="translate(32, 120)" class="key trans keypos-12">
<rect rx="6" ry="6" x="-30" y="-30" width="60" height="60" class="key trans"/>
<text x="0" y="2" class="key trans tap">▽</text>
</g>
<g transform="translate(96, 120)" class="key keypos-13">
<rect rx="6" ry="6" x="-30" y="-30" width="60" height="60" class="key"/>
<text x="0" y="2" class="key tap">1</text>
</g>
<g transform="translate(160, 104)" class="key keypos-14">
<rect rx="6" ry="6" x="-30" y="-30" width="60" height="60" class="key"/>
<text x="0" y="2" class="key tap">2</text>
</g>
<g transform="translate(224, 96)" class="key keypos-15">
<rect rx="6" ry="6" x="-30" y="-30" width="60" height="60" class="key"/>
<text x="0" y="2" class="key tap">3</text>
</g>
<g transform="translate(288, 104)" class="key keypos-16">
<rect rx="6" ry="6" x="-30" y="-30" width="60" height="60" class="key"/>
<text x="0" y="2" class="key tap">4</text>
</g>
<g transform="translate(352, 112)" class="key keypos-17">
<rect rx="6" ry="6" x="-30" y="-30" width="60" height="60" class="key"/>
<text x="0" y="2" class="key tap">5</text>
</g>
<g transform="translate(608, 112)" class="key keypos-18">
<rect rx="6" ry="6" x="-30" y="-30" width="60" height="60" class="key"/>
<text x="0" y="2" class="key tap">6</text>
</g>
<g transform="translate(672, 104)" class="key keypos-19">
<rect rx="6" ry="6" x="-30" y="-30" width="60" height="60" class="key"/>
<text x="0" y="2" class="key tap">7</text>
</g>
<g transform="translate(736, 96)" class="key keypos-20">
<rect rx="6" ry="6" x="-30" y="-30" width="60" height="60" class="key"/>
<text x="0" y="2" class="key tap">8</text>
</g>
<g transform="translate(800, 104)" class="key keypos-21">
<rect rx="6" ry="6" x="-30" y="-30" width="60" height="60" class="key"/>
<text x="0" y="2" class="key tap">9</text>
</g>
<g transform="translate(864, 120)" class="key keypos-22">
<rect rx="6" ry="6" x="-30" y="-30" width="60" height="60" class="key"/>
<text x="0" y="2" class="key tap">0</text>
</g>
<g transform="translate(928, 120)" class="key trans keypos-23">
<rect rx="6" ry="6" x="-30" y="-30" width="60" height="60" class="key trans"/>
<text x="0" y="2" class="key trans tap">▽</text>
</g>
<g transform="translate(32, 184)" class="key trans keypos-24">
<rect rx="6" ry="6" x="-30" y="-30" width="60" height="60" class="key trans"/>
<text x="0" y="2" class="key trans tap">▽</text>
</g>
<g transform="translate(96, 184)" class="key keypos-25">
<rect rx="6" ry="6" x="-30" y="-30" width="60" height="60" class="key"/>
<text x="0" y="2" class="key tap">!</text>
</g>
<g transform="translate(160, 168)" class="key keypos-26">
<rect rx="6" ry="6" x="-30" y="-30" width="60" height="60" class="key"/>
<text x="0" y="2" class="key tap">[</text>
</g>
<g transform="translate(224, 160)" class="key keypos-27">
<rect rx="6" ry="6" x="-30" y="-30" width="60" height="60" class="key"/>
<text x="0" y="2" class="key tap">{</text>
</g>
<g transform="translate(288, 168)" class="key keypos-28">
<rect rx="6" ry="6" x="-30" y="-30" width="60" height="60" class="key"/>
<text x="0" y="2" class="key tap">(</text>
</g>
<g transform="translate(352, 176)" class="key keypos-29">
<rect rx="6" ry="6" x="-30" y="-30" width="60" height="60" class="key"/>
<text x="0" y="2" class="key tap">$</text>
</g>
<g transform="translate(608, 176)" class="key keypos-30">
<rect rx="6" ry="6" x="-30" y="-30" width="60" height="60" class="key"/>
<text x="0" y="2" class="key tap">PGUP</text>
</g>
<g transform="translate(672, 168)" class="key keypos-31">
<rect rx="6" ry="6" x="-30" y="-30" width="60" height="60" class="key"/>
<text x="0" y="2" class="key tap">LEFT</text>
</g>
<g transform="translate(736, 160)" class="key keypos-32">
<rect rx="6" ry="6" x="-30" y="-30" width="60" height="60" class="key"/>
<text x="0" y="2" class="key tap">DOWN</text>
</g>
<g transform="translate(800, 168)" class="key keypos-33">
<rect rx="6" ry="6" x="-30" y="-30" width="60" height="60" class="key"/>
<text x="0" y="2" class="key tap">UP</text>
</g>
<g transform="translate(864, 184)" class="key keypos-34">
<rect rx="6" ry="6" x="-30" y="-30" width="60" height="60" class="key"/>
<text x="0" y="2" class="key tap">RGHT</text>
</g>
<g transform="translate(928, 184)" class="key keypos-35">
<rect rx="6" ry="6" x="-30" y="-30" width="60" height="60" class="key"/>
<text x="0" y="2" class="key tap">`</text>
</g>
<g transform="translate(32, 248)" class="key keypos-36">
<rect rx="6" ry="6" x="-30" y="-30" width="60" height="60" class="key"/>
<text x="0" y="2" class="key tap">LSFT</text>
</g>
<g transform="translate(96, 248)" class="key keypos-37">
<rect rx="6" ry="6" x="-30" y="-30" width="60" height="60" class="key"/>
<text x="0" y="2" class="key tap">@</text>
</g>
<g transform="translate(160, 232)" class="key keypos-38">
<rect rx="6" ry="6" x="-30" y="-30" width="60" height="60" class="key"/>
<text x="0" y="2" class="key tap">]</text>
</g>
<g transform="translate(224, 224)" class="key keypos-39">
<rect rx="6" ry="6" x="-30" y="-30" width="60" height="60" class="key"/>
<text x="0" y="2" class="key tap">}</text>
</g>
<g transform="translate(288, 232)" class="key keypos-40">
<rect rx="6" ry="6" x="-30" y="-30" width="60" height="60" class="key"/>
<text x="0" y="2" class="key tap">)</text>
</g>
<g transform="translate(352, 240)" class="key keypos-41">
<rect rx="6" ry="6" x="-30" y="-30" width="60" height="60" class="key"/>
<text x="0" y="2" class="key tap">%</text>
</g>
<g transform="translate(426, 272)" class="key keypos-42">
<rect rx="6" ry="6" x="-30" y="-30" width="60" height="60" class="key"/>
</g>
<g transform="translate(534, 272)" class="key keypos-43">
<rect rx="6" ry="6" x="-30" y="-30" width="60" height="60" class="key"/>
</g>
<g transform="translate(608, 240)" class="key keypos-44">
<rect rx="6" ry="6" x="-30" y="-30" width="60" height="60" class="key"/>
<text x="0" y="2" class="key tap">PGDN</text>
</g>
<g transform="translate(672, 232)" class="key keypos-45">
<rect rx="6" ry="6" x="-30" y="-30" width="60" height="60" class="key"/>
<text x="0" y="2" class="key tap">HOME</text>
</g>
<g transform="translate(736, 224)" class="key keypos-46">
<rect rx="6" ry="6" x="-30" y="-30" width="60" height="60" class="key"/>
<text x="0" y="2" class="key tap">END</text>
</g>
<g transform="translate(800, 232)" class="key keypos-47">
<rect rx="6" ry="6" x="-30" y="-30" width="60" height="60" class="key"/>
<text x="0" y="2" class="key tap">+</text>
</g>
<g transform="translate(864, 248)" class="key keypos-48">
<rect rx="6" ry="6" x="-30" y="-30" width="60" height="60" class="key"/>
<text x="0" y="2" class="key tap">\</text>
</g>
<g transform="translate(928, 248)" class="key keypos-49">
<rect rx="6" ry="6" x="-30" y="-30" width="60" height="60" class="key"/>
<text x="0" y="2" class="key tap">=</text>
</g>
<g transform="translate(256, 304)" class="key trans keypos-50">
<rect rx="6" ry="6" x="-30" y="-30" width="60" height="60" class="key trans"/>
<text x="0" y="2" class="key trans tap">▽</text>
</g>
<g transform="translate(320, 312)" class="key held keypos-51">
<rect rx="6" ry="6" x="-30" y="-30" width="60" height="60" class="key held"/>
</g>
<g transform="translate(390, 336)" class="key trans keypos-52">
<rect rx="6" ry="6" x="-30" y="-30" width="60" height="60" class="key trans"/>
<text x="0" y="2" class="key trans tap">▽</text>
</g>
<g transform="translate(570, 336)" class="key trans keypos-53">
<rect rx="6" ry="6" x="-30" y="-30" width="60" height="60" class="key trans"/>
<text x="0" y="2" class="key trans tap">▽</text>
</g>
<g transform="translate(640, 312)" class="key keypos-54">
<rect rx="6" ry="6" x="-30" y="-30" width="60" height="60" class="key"/>
<text x="0" y="2" class="key tap">DEL</text>
</g>
<g transform="translate(704, 304)" class="key trans keypos-55">
<rect rx="6" ry="6" x="-30" y="-30" width="60" height="60" class="key trans"/>
<text x="0" y="2" class="key trans tap">▽</text>
</g>
</g>
</g>
<g transform="translate(30, 848)" class="layer-L2">
<text x="0" y="28" class="label" id="L2">L2:</text>
<g transform="translate(0, 56)">
<g transform="translate(32, 56)" class="key trans keypos-0">
<rect rx="6" ry="6" x="-30" y="-30" width="60" height="60" class="key trans"/>
<text x="0" y="2" class="key trans tap">▽</text>
</g>
<g transform="translate(96, 56)" class="key trans keypos-1">
<rect rx="6" ry="6" x="-30" y="-30" width="60" height="60" class="key trans"/>
<text x="0" y="2" class="key trans tap">▽</text>
</g>
<g transform="translate(160, 40)" class="key trans keypos-2">
<rect rx="6" ry="6" x="-30" y="-30" width="60" height="60" class="key trans"/>
<text x="0" y="2" class="key trans tap">▽</text>
</g>
<g transform="translate(224, 32)" class="key trans keypos-3">
<rect rx="6" ry="6" x="-30" y="-30" width="60" height="60" class="key trans"/>
<text x="0" y="2" class="key trans tap">▽</text>
</g>
<g transform="translate(288, 40)" class="key trans keypos-4">
<rect rx="6" ry="6" x="-30" y="-30" width="60" height="60" class="key trans"/>
<text x="0" y="2" class="key trans tap">▽</text>
</g>
<g transform="translate(352, 48)" class="key trans keypos-5">
<rect rx="6" ry="6" x="-30" y="-30" width="60" height="60" class="key trans"/>
<text x="0" y="2" class="key trans tap">▽</text>
</g>
<g transform="translate(608, 48)" class="key trans keypos-6">
<rect rx="6" ry="6" x="-30" y="-30" width="60" height="60" class="key trans"/>
<text x="0" y="2" class="key trans tap">▽</text>
</g>
<g transform="translate(672, 40)" class="key trans keypos-7">
<rect rx="6" ry="6" x="-30" y="-30" width="60" height="60" class="key trans"/>
<text x="0" y="2" class="key trans tap">▽</text>
</g>
<g transform="translate(736, 32)" class="key trans keypos-8">
<rect rx="6" ry="6" x="-30" y="-30" width="60" height="60" class="key trans"/>
<text x="0" y="2" class="key trans tap">▽</text>
</g>
<g transform="translate(800, 40)" class="key trans keypos-9">
<rect rx="6" ry="6" x="-30" y="-30" width="60" height="60" class="key trans"/>
<text x="0" y="2" class="key trans tap">▽</text>
</g>
<g transform="translate(864, 56)" class="key trans keypos-10">
<rect rx="6" ry="6" x="-30" y="-30" width="60" height="60" class="key trans"/>
<text x="0" y="2" class="key trans tap">▽</text>
</g>
<g transform="translate(928, 56)" class="key trans keypos-11">
<rect rx="6" ry="6" x="-30" y="-30" width="60" height="60" class="key trans"/>
<text x="0" y="2" class="key trans tap">▽</text>
</g>
<g transform="translate(32, 120)" class="key trans keypos-12">
<rect rx="6" ry="6" x="-30" y="-30" width="60" height="60" class="key trans"/>
<text x="0" y="2" class="key trans tap">▽</text>
</g>
<g transform="translate(96, 120)" class="key keypos-13">
<rect rx="6" ry="6" x="-30" y="-30" width="60" height="60" class="key"/>
<text x="0" y="2" class="key tap">F1</text>
</g>
<g transform="translate(160, 104)" class="key keypos-14">
<rect rx="6" ry="6" x="-30" y="-30" width="60" height="60" class="key"/>
<text x="0" y="2" class="key tap">F2</text>
</g>
<g transform="translate(224, 96)" class="key keypos-15">
<rect rx="6" ry="6" x="-30" y="-30" width="60" height="60" class="key"/>
<text x="0" y="2" class="key tap">F3</text>
</g>
<g transform="translate(288, 104)" class="key keypos-16">
<rect rx="6" ry="6" x="-30" y="-30" width="60" height="60" class="key"/>
<text x="0" y="2" class="key tap">F4</text>
</g>
<g transform="translate(352, 112)" class="key keypos-17">
<rect rx="6" ry="6" x="-30" y="-30" width="60" height="60" class="key"/>
<text x="0" y="2" class="key tap">F5</text>
</g>
<g transform="translate(608, 112)" class="key keypos-18">
<rect rx="6" ry="6" x="-30" y="-30" width="60" height="60" class="key"/>
<text x="0" y="2" class="key tap">F6</text>
</g>
<g transform="translate(672, 104)" class="key keypos-19">
<rect rx="6" ry="6" x="-30" y="-30" width="60" height="60" class="key"/>
<text x="0" y="2" class="key tap">F7</text>
</g>
<g transform="translate(736, 96)" class="key keypos-20">
<rect rx="6" ry="6" x="-30" y="-30" width="60" height="60" class="key"/>
<text x="0" y="2" class="key tap">F8</text>
</g>
<g transform="translate(800, 104)" class="key keypos-21">
<rect rx="6" ry="6" x="-30" y="-30" width="60" height="60" class="key"/>
<text x="0" y="2" class="key tap">F9</text>
</g>
<g transform="translate(864, 120)" class="key keypos-22">
<rect rx="6" ry="6" x="-30" y="-30" width="60" height="60" class="key"/>
<text x="0" y="2" class="key tap">F10</text>
</g>
<g transform="translate(928, 120)" class="key keypos-23">
<rect rx="6" ry="6" x="-30" y="-30" width="60" height="60" class="key"/>
<text x="0" y="2" class="key tap">F11</text>
</g>
<g transform="translate(32, 184)" class="key held keypos-24">
<rect rx="6" ry="6" x="-30" y="-30" width="60" height="60" class="key held"/>
</g>
<g transform="translate(96, 184)" class="key trans keypos-25">
<rect rx="6" ry="6" x="-30" y="-30" width="60" height="60" class="key trans"/>
<text x="0" y="2" class="key trans tap">▽</text>
</g>
<g transform="translate(160, 168)" class="key trans keypos-26">
<rect rx="6" ry="6" x="-30" y="-30" width="60" height="60" class="key trans"/>
<text x="0" y="2" class="key trans tap">▽</text>
</g>
<g transform="translate(224, 160)" class="key trans keypos-27">
<rect rx="6" ry="6" x="-30" y="-30" width="60" height="60" class="key trans"/>
<text x="0" y="2" class="key trans tap">▽</text>
</g>
<g transform="translate(288, 168)" class="key trans keypos-28">
<rect rx="6" ry="6" x="-30" y="-30" width="60" height="60" class="key trans"/>
<text x="0" y="2" class="key trans tap">▽</text>
</g>
<g transform="translate(352, 176)" class="key trans keypos-29">
<rect rx="6" ry="6" x="-30" y="-30" width="60" height="60" class="key trans"/>
<text x="0" y="2" class="key trans tap">▽</text>
</g>
<g transform="translate(608, 176)" class="key trans keypos-30">
<rect rx="6" ry="6" x="-30" y="-30" width="60" height="60" class="key trans"/>
<text x="0" y="2" class="key trans tap">▽</text>
</g>
<g transform="translate(672, 168)" class="key trans keypos-31">
<rect rx="6" ry="6" x="-30" y="-30" width="60" height="60" class="key trans"/>
<text x="0" y="2" class="key trans tap">▽</text>
</g>
<g transform="translate(736, 160)" class="key trans keypos-32">
<rect rx="6" ry="6" x="-30" y="-30" width="60" height="60" class="key trans"/>
<text x="0" y="2" class="key trans tap">▽</text>
</g>
<g transform="translate(800, 168)" class="key trans keypos-33">
<rect rx="6" ry="6" x="-30" y="-30" width="60" height="60" class="key trans"/>
<text x="0" y="2" class="key trans tap">▽</text>
</g>
<g transform="translate(864, 184)" class="key trans keypos-34">
<rect rx="6" ry="6" x="-30" y="-30" width="60" height="60" class="key trans"/>
<text x="0" y="2" class="key trans tap">▽</text>
</g>
<g transform="translate(928, 184)" class="key keypos-35">
<rect rx="6" ry="6" x="-30" y="-30" width="60" height="60" class="key"/>
<text x="0" y="2" class="key tap">F12</text>
</g>
<g transform="translate(32, 248)" class="key trans keypos-36">
<rect rx="6" ry="6" x="-30" y="-30" width="60" height="60" class="key trans"/>
<text x="0" y="2" class="key trans tap">▽</text>
</g>
<g transform="translate(96, 248)" class="key trans keypos-37">
<rect rx="6" ry="6" x="-30" y="-30" width="60" height="60" class="key trans"/>
<text x="0" y="2" class="key trans tap">▽</text>
</g>
<g transform="translate(160, 232)" class="key trans keypos-38">
<rect rx="6" ry="6" x="-30" y="-30" width="60" height="60" class="key trans"/>
<text x="0" y="2" class="key trans tap">▽</text>
</g>
<g transform="translate(224, 224)" class="key trans keypos-39">
<rect rx="6" ry="6" x="-30" y="-30" width="60" height="60" class="key trans"/>
<text x="0" y="2" class="key trans tap">▽</text>
</g>
<g transform="translate(288, 232)" class="key trans keypos-40">
<rect rx="6" ry="6" x="-30" y="-30" width="60" height="60" class="key trans"/>
<text x="0" y="2" class="key trans tap">▽</text>
</g>
<g transform="translate(352, 240)" class="key trans keypos-41">
<rect rx="6" ry="6" x="-30" y="-30" width="60" height="60" class="key trans"/>
<text x="0" y="2" class="key trans tap">▽</text>
</g>
<g transform="translate(426, 272)" class="key keypos-42">
<rect rx="6" ry="6" x="-30" y="-30" width="60" height="60" class="key"/>
</g>
<g transform="translate(534, 272)" class="key keypos-43">
<rect rx="6" ry="6" x="-30" y="-30" width="60" height="60" class="key"/>
</g>
<g transform="translate(608, 240)" class="key trans keypos-44">
<rect rx="6" ry="6" x="-30" y="-30" width="60" height="60" class="key trans"/>
<text x="0" y="2" class="key trans tap">▽</text>
</g>
<g transform="translate(672, 232)" class="key trans keypos-45">
<rect rx="6" ry="6" x="-30" y="-30" width="60" height="60" class="key trans"/>
<text x="0" y="2" class="key trans tap">▽</text>
</g>
<g transform="translate(736, 224)" class="key trans keypos-46">
<rect rx="6" ry="6" x="-30" y="-30" width="60" height="60" class="key trans"/>
<text x="0" y="2" class="key trans tap">▽</text>
</g>
<g transform="translate(800, 232)" class="key trans keypos-47">
<rect rx="6" ry="6" x="-30" y="-30" width="60" height="60" class="key trans"/>
<text x="0" y="2" class="key trans tap">▽</text>
</g>
<g transform="translate(864, 248)" class="key trans keypos-48">
<rect rx="6" ry="6" x="-30" y="-30" width="60" height="60" class="key trans"/>
<text x="0" y="2" class="key trans tap">▽</text>
</g>
<g transform="translate(928, 248)" class="key trans keypos-49">
<rect rx="6" ry="6" x="-30" y="-30" width="60" height="60" class="key trans"/>
<text x="0" y="2" class="key trans tap">▽</text>
</g>
<g transform="translate(256, 304)" class="key trans keypos-50">
<rect rx="6" ry="6" x="-30" y="-30" width="60" height="60" class="key trans"/>
<text x="0" y="2" class="key trans tap">▽</text>
</g>
<g transform="translate(320, 312)" class="key trans keypos-51">
<rect rx="6" ry="6" x="-30" y="-30" width="60" height="60" class="key trans"/>
<text x="0" y="2" class="key trans tap">▽</text>
</g>
<g transform="translate(390, 336)" class="key trans keypos-52">
<rect rx="6" ry="6" x="-30" y="-30" width="60" height="60" class="key trans"/>
<text x="0" y="2" class="key trans tap">▽</text>
</g>
<g transform="translate(570, 336)" class="key trans keypos-53">
<rect rx="6" ry="6" x="-30" y="-30" width="60" height="60" class="key trans"/>
<text x="0" y="2" class="key trans tap">▽</text>
</g>
<g transform="translate(640, 312)" class="key trans keypos-54">
<rect rx="6" ry="6" x="-30" y="-30" width="60" height="60" class="key trans"/>
<text x="0" y="2" class="key trans tap">▽</text>
</g>
<g transform="translate(704, 304)" class="key trans keypos-55">
<rect rx="6" ry="6" x="-30" y="-30" width="60" height="60" class="key trans"/>
<text x="0" y="2" class="key trans tap">▽</text>
</g>
</g>
</g>
<g transform="translate(30, 1272)" class="layer-L3">
<text x="0" y="28" class="label" id="L3">L3:</text>
<g transform="translate(0, 56)">
<g transform="translate(32, 56)" class="key trans keypos-0">
<rect rx="6" ry="6" x="-30" y="-30" width="60" height="60" class="key trans"/>
<text x="0" y="2" class="key trans tap">▽</text>
</g>
<g transform="translate(96, 56)" class="key trans keypos-1">
<rect rx="6" ry="6" x="-30" y="-30" width="60" height="60" class="key trans"/>
<text x="0" y="2" class="key trans tap">▽</text>
</g>
<g transform="translate(160, 40)" class="key keypos-2">
<rect rx="6" ry="6" x="-30" y="-30" width="60" height="60" class="key"/>
</g>
<g transform="translate(224, 32)" class="key keypos-3">
<rect rx="6" ry="6" x="-30" y="-30" width="60" height="60" class="key"/>
<text x="0" y="2" class="key tap">BRID</text>
</g>
<g transform="translate(288, 40)" class="key keypos-4">
<rect rx="6" ry="6" x="-30" y="-30" width="60" height="60" class="key"/>
<text x="0" y="2" class="key tap">BRIU</text>
</g>
<g transform="translate(352, 48)" class="key keypos-5">
<rect rx="6" ry="6" x="-30" y="-30" width="60" height="60" class="key"/>
<text x="0" y="2" class="key tap">MPLY</text>
</g>
<g transform="translate(608, 48)" class="key keypos-6">
<rect rx="6" ry="6" x="-30" y="-30" width="60" height="60" class="key"/>
<text x="0" y="2" class="key tap">MNXT</text>
</g>
<g transform="translate(672, 40)" class="key keypos-7">
<rect rx="6" ry="6" x="-30" y="-30" width="60" height="60" class="key"/>
<text x="0" y="2" class="key tap">VOLU</text>
</g>
<g transform="translate(736, 32)" class="key keypos-8">
<rect rx="6" ry="6" x="-30" y="-30" width="60" height="60" class="key"/>
<text x="0" y="2" class="key tap">VOLD</text>
</g>
<g transform="translate(800, 40)" class="key keypos-9">
<rect rx="6" ry="6" x="-30" y="-30" width="60" height="60" class="key"/>
<text x="0" y="2" class="key tap">
<tspan x="0" dy="-0.6em">UG</tspan><tspan x="0" dy="1.2em">NEXT</tspan>
</text>
</g>
<g transform="translate(864, 56)" class="key keypos-10">
<rect rx="6" ry="6" x="-30" y="-30" width="60" height="60" class="key"/>
<text x="0" y="2" class="key tap">
<tspan x="0" dy="-0.6em">UG</tspan><tspan x="0" dy="1.2em">HUEU</tspan>
</text>
</g>
<g transform="translate(928, 56)" class="key keypos-11">
<rect rx="6" ry="6" x="-30" y="-30" width="60" height="60" class="key"/>
<text x="0" y="2" class="key tap">
<tspan x="0" dy="-0.6em">UG</tspan><tspan x="0" dy="1.2em">VALU</tspan>
</text>
</g>
<g transform="translate(32, 120)" class="key trans keypos-12">
<rect rx="6" ry="6" x="-30" y="-30" width="60" height="60" class="key trans"/>
<text x="0" y="2" class="key trans tap">▽</text>
</g>
<g transform="translate(96, 120)" class="key held keypos-13">
<rect rx="6" ry="6" x="-30" y="-30" width="60" height="60" class="key held"/>
</g>
<g transform="translate(160, 104)" class="key trans keypos-14">
<rect rx="6" ry="6" x="-30" y="-30" width="60" height="60" class="key trans"/>
<text x="0" y="2" class="key trans tap">▽</text>
</g>
<g transform="translate(224, 96)" class="key trans keypos-15">
<rect rx="6" ry="6" x="-30" y="-30" width="60" height="60" class="key trans"/>
<text x="0" y="2" class="key trans tap">▽</text>
</g>
<g transform="translate(288, 104)" class="key trans keypos-16">
<rect rx="6" ry="6" x="-30" y="-30" width="60" height="60" class="key trans"/>
<text x="0" y="2" class="key trans tap">▽</text>
</g>
<g transform="translate(352, 112)" class="key trans keypos-17">
<rect rx="6" ry="6" x="-30" y="-30" width="60" height="60" class="key trans"/>
<text x="0" y="2" class="key trans tap">▽</text>
</g>
<g transform="translate(608, 112)" class="key trans keypos-18">
<rect rx="6" ry="6" x="-30" y="-30" width="60" height="60" class="key trans"/>
<text x="0" y="2" class="key trans tap">▽</text>
</g>
<g transform="translate(672, 104)" class="key trans keypos-19">
<rect rx="6" ry="6" x="-30" y="-30" width="60" height="60" class="key trans"/>
<text x="0" y="2" class="key trans tap">▽</text>
</g>
<g transform="translate(736, 96)" class="key trans keypos-20">
<rect rx="6" ry="6" x="-30" y="-30" width="60" height="60" class="key trans"/>
<text x="0" y="2" class="key trans tap">▽</text>
</g>
<g transform="translate(800, 104)" class="key keypos-21">
<rect rx="6" ry="6" x="-30" y="-30" width="60" height="60" class="key"/>
<text x="0" y="2" class="key tap">
<tspan x="0" dy="-0.6em">UG</tspan><tspan x="0" dy="1.2em">PREV</tspan>
</text>
</g>
<g transform="translate(864, 120)" class="key keypos-22">
<rect rx="6" ry="6" x="-30" y="-30" width="60" height="60" class="key"/>
<text x="0" y="2" class="key tap">
<tspan x="0" dy="-0.6em">UG</tspan><tspan x="0" dy="1.2em">HUED</tspan>
</text>
</g>
<g transform="translate(928, 120)" class="key keypos-23">
<rect rx="6" ry="6" x="-30" y="-30" width="60" height="60" class="key"/>
<text x="0" y="2" class="key tap">
<tspan x="0" dy="-0.6em">UG</tspan><tspan x="0" dy="1.2em">VALD</tspan>
</text>
</g>
<g transform="translate(32, 184)" class="key trans keypos-24">
<rect rx="6" ry="6" x="-30" y="-30" width="60" height="60" class="key trans"/>
<text x="0" y="2" class="key trans tap">▽</text>
</g>
<g transform="translate(96, 184)" class="key trans keypos-25">
<rect rx="6" ry="6" x="-30" y="-30" width="60" height="60" class="key trans"/>
<text x="0" y="2" class="key trans tap">▽</text>
</g>
<g transform="translate(160, 168)" class="key trans keypos-26">
<rect rx="6" ry="6" x="-30" y="-30" width="60" height="60" class="key trans"/>
<text x="0" y="2" class="key trans tap">▽</text>
</g>
<g transform="translate(224, 160)" class="key trans keypos-27">
<rect rx="6" ry="6" x="-30" y="-30" width="60" height="60" class="key trans"/>
<text x="0" y="2" class="key trans tap">▽</text>
</g>
<g transform="translate(288, 168)" class="key trans keypos-28">
<rect rx="6" ry="6" x="-30" y="-30" width="60" height="60" class="key trans"/>
<text x="0" y="2" class="key trans tap">▽</text>
</g>
<g transform="translate(352, 176)" class="key trans keypos-29">
<rect rx="6" ry="6" x="-30" y="-30" width="60" height="60" class="key trans"/>
<text x="0" y="2" class="key trans tap">▽</text>
</g>
<g transform="translate(608, 176)" class="key trans keypos-30">
<rect rx="6" ry="6" x="-30" y="-30" width="60" height="60" class="key trans"/>
<text x="0" y="2" class="key trans tap">▽</text>
</g>
<g transform="translate(672, 168)" class="key trans keypos-31">
<rect rx="6" ry="6" x="-30" y="-30" width="60" height="60" class="key trans"/>
<text x="0" y="2" class="key trans tap">▽</text>
</g>
<g transform="translate(736, 160)" class="key trans keypos-32">
<rect rx="6" ry="6" x="-30" y="-30" width="60" height="60" class="key trans"/>
<text x="0" y="2" class="key trans tap">▽</text>
</g>
<g transform="translate(800, 168)" class="key trans keypos-33">
<rect rx="6" ry="6" x="-30" y="-30" width="60" height="60" class="key trans"/>
<text x="0" y="2" class="key trans tap">▽</text>
</g>
<g transform="translate(864, 184)" class="key trans keypos-34">
<rect rx="6" ry="6" x="-30" y="-30" width="60" height="60" class="key trans"/>
<text x="0" y="2" class="key trans tap">▽</text>
</g>
<g transform="translate(928, 184)" class="key trans keypos-35">
<rect rx="6" ry="6" x="-30" y="-30" width="60" height="60" class="key trans"/>
<text x="0" y="2" class="key trans tap">▽</text>
</g>
<g transform="translate(32, 248)" class="key trans keypos-36">
<rect rx="6" ry="6" x="-30" y="-30" width="60" height="60" class="key trans"/>
<text x="0" y="2" class="key trans tap">▽</text>
</g>
<g transform="translate(96, 248)" class="key trans keypos-37">
<rect rx="6" ry="6" x="-30" y="-30" width="60" height="60" class="key trans"/>
<text x="0" y="2" class="key trans tap">▽</text>
</g>
<g transform="translate(160, 232)" class="key trans keypos-38">
<rect rx="6" ry="6" x="-30" y="-30" width="60" height="60" class="key trans"/>
<text x="0" y="2" class="key trans tap">▽</text>
</g>
<g transform="translate(224, 224)" class="key trans keypos-39">
<rect rx="6" ry="6" x="-30" y="-30" width="60" height="60" class="key trans"/>
<text x="0" y="2" class="key trans tap">▽</text>
</g>
<g transform="translate(288, 232)" class="key trans keypos-40">
<rect rx="6" ry="6" x="-30" y="-30" width="60" height="60" class="key trans"/>
<text x="0" y="2" class="key trans tap">▽</text>
</g>
<g transform="translate(352, 240)" class="key trans keypos-41">
<rect rx="6" ry="6" x="-30" y="-30" width="60" height="60" class="key trans"/>
<text x="0" y="2" class="key trans tap">▽</text>
</g>
<g transform="translate(426, 272)" class="key keypos-42">
<rect rx="6" ry="6" x="-30" y="-30" width="60" height="60" class="key"/>
</g>
<g transform="translate(534, 272)" class="key keypos-43">
<rect rx="6" ry="6" x="-30" y="-30" width="60" height="60" class="key"/>
</g>
<g transform="translate(608, 240)" class="key trans keypos-44">
<rect rx="6" ry="6" x="-30" y="-30" width="60" height="60" class="key trans"/>
<text x="0" y="2" class="key trans tap">▽</text>
</g>
<g transform="translate(672, 232)" class="key trans keypos-45">
<rect rx="6" ry="6" x="-30" y="-30" width="60" height="60" class="key trans"/>
<text x="0" y="2" class="key trans tap">▽</text>
</g>
<g transform="translate(736, 224)" class="key keypos-46">
<rect rx="6" ry="6" x="-30" y="-30" width="60" height="60" class="key"/>
</g>
<g transform="translate(800, 232)" class="key keypos-47">
<rect rx="6" ry="6" x="-30" y="-30" width="60" height="60" class="key"/>
</g>
<g transform="translate(864, 248)" class="key keypos-48">
<rect rx="6" ry="6" x="-30" y="-30" width="60" height="60" class="key"/>
</g>
<g transform="translate(928, 248)" class="key keypos-49">
<rect rx="6" ry="6" x="-30" y="-30" width="60" height="60" class="key"/>
</g>
<g transform="translate(256, 304)" class="key trans keypos-50">
<rect rx="6" ry="6" x="-30" y="-30" width="60" height="60" class="key trans"/>
<text x="0" y="2" class="key trans tap">▽</text>
</g>
<g transform="translate(320, 312)" class="key trans keypos-51">
<rect rx="6" ry="6" x="-30" y="-30" width="60" height="60" class="key trans"/>
<text x="0" y="2" class="key trans tap">▽</text>
</g>
<g transform="translate(390, 336)" class="key trans keypos-52">
<rect rx="6" ry="6" x="-30" y="-30" width="60" height="60" class="key trans"/>
<text x="0" y="2" class="key trans tap">▽</text>
</g>
<g transform="translate(570, 336)" class="key trans keypos-53">
<rect rx="6" ry="6" x="-30" y="-30" width="60" height="60" class="key trans"/>
<text x="0" y="2" class="key trans tap">▽</text>
</g>
<g transform="translate(640, 312)" class="key trans keypos-54">
<rect rx="6" ry="6" x="-30" y="-30" width="60" height="60" class="key trans"/>
<text x="0" y="2" class="key trans tap">▽</text>
</g>
<g transform="translate(704, 304)" class="key trans keypos-55">
<rect rx="6" ry="6" x="-30" y="-30" width="60" height="60" class="key trans"/>
<text x="0" y="2" class="key trans tap">▽</text>
</g>
</g>
</g>
</svg>
