<svg width="956" height="1515" viewBox="0 0 956 1515" class="keymap" xmlns="http://www.w3.org/2000/svg" xmlns:xlink="http://www.w3.org/1999/xlink">
<style>.background { fill: #0f0f14; }
.key { fill: #1a1b26; stroke: #3b4261; stroke-width: 1; }
.key.held { fill: #292e42; stroke: #e0af68; stroke-width: 1; }
.key.ghost { stroke-dasharray: 4,4; stroke: #565f89; stroke-width: 1; }
.keycode { font-size: 10px; font-family: monospace; fill: #c0caf5; text-anchor: middle; dominant-baseline: middle; }
text.tap { font-size: 12px; fill: #ffffff; stroke: none; transform: translateX(-8px); }
text.hold { font-size: 9px; fill: #9db8f8; stroke: none; transform: translate(-8px, 2px); }
text.shifted { font-size: 9px; fill: #f0c878; stroke: none; transform: translate(-8px, 4px); }
.label { font-size: 14px; font-weight: bold; fill: #c0caf5; stroke: none; }
.combo { fill: #bb9af7; stroke: #3b4261; stroke-width: 1; }
</style>
<g transform="translate(30, 0)" class="layer-Base">
<text x="0" y="28" class="label" id="Base">Base:</text>
<g transform="translate(0, 56)">
<g transform="translate(73, 113) rotate(-10.0)" class="key keypos-0">
<rect rx="6" ry="6" x="-26" y="-26" width="52" height="52" class="key"/>
<text x="0" y="2" class="key tap">B</text>
</g>
<g transform="translate(137, 62) rotate(-4.0)" class="key keypos-1">
<rect rx="6" ry="6" x="-26" y="-26" width="52" height="52" class="key"/>
<text x="0" y="2" class="key tap">L</text>
</g>
<g transform="translate(200, 28)" class="key keypos-2">
<rect rx="6" ry="6" x="-26" y="-26" width="52" height="52" class="key"/>
<text x="0" y="2" class="key tap">D</text>
</g>
<g transform="translate(256, 56)" class="key keypos-3">
<rect rx="6" ry="6" x="-26" y="-26" width="52" height="52" class="key"/>
<text x="0" y="2" class="key tap">W</text>
</g>
<g transform="translate(312, 65)" class="key keypos-4">
<rect rx="6" ry="6" x="-26" y="-26" width="52" height="52" class="key"/>
<text x="0" y="2" class="key tap">Z</text>
</g>
<g transform="translate(584, 65)" class="key keypos-5">
<rect rx="6" ry="6" x="-26" y="-26" width="52" height="52" class="key"/>
<text x="0" y="2" class="key tap">;</text>
</g>
<g transform="translate(640, 56)" class="key keypos-6">
<rect rx="6" ry="6" x="-26" y="-26" width="52" height="52" class="key"/>
<text x="0" y="2" class="key tap">F</text>
</g>
<g transform="translate(696, 28)" class="key keypos-7">
<rect rx="6" ry="6" x="-26" y="-26" width="52" height="52" class="key"/>
<text x="0" y="2" class="key tap">O</text>
</g>
<g transform="translate(760, 62) rotate(4.0)" class="key keypos-8">
<rect rx="6" ry="6" x="-26" y="-26" width="52" height="52" class="key"/>
<text x="0" y="2" class="key tap">U</text>
</g>
<g transform="translate(823, 113) rotate(10.0)" class="key keypos-9">
<rect rx="6" ry="6" x="-26" y="-26" width="52" height="52" class="key"/>
<text x="0" y="2" class="key tap">J</text>
</g>
<g transform="translate(83, 168) rotate(-10.0)" class="key keypos-10">
<rect rx="6" ry="6" x="-26" y="-26" width="52" height="52" class="key"/>
<text x="0" y="2" class="key tap">N</text>
</g>
<g transform="translate(140, 118) rotate(-4.0)" class="key keypos-11">
<rect rx="6" ry="6" x="-26" y="-26" width="52" height="52" class="key"/>
<text x="0" y="2" class="key tap">R</text>
</g>
<g transform="translate(200, 84)" class="key keypos-12">
<rect rx="6" ry="6" x="-26" y="-26" width="52" height="52" class="key"/>
<text x="0" y="2" class="key tap">T</text>
</g>
<g transform="translate(256, 112)" class="key keypos-13">
<rect rx="6" ry="6" x="-26" y="-26" width="52" height="52" class="key"/>
<text x="0" y="2" class="key tap">S</text>
</g>
<g transform="translate(312, 121)" class="key keypos-14">
<rect rx="6" ry="6" x="-26" y="-26" width="52" height="52" class="key"/>
<text x="0" y="2" class="key tap">G</text>
</g>
<g transform="translate(584, 121)" class="key keypos-15">
<rect rx="6" ry="6" x="-26" y="-26" width="52" height="52" class="key"/>
<text x="0" y="2" class="key tap">Y</text>
</g>
<g transform="translate(640, 112)" class="key keypos-16">
<rect rx="6" ry="6" x="-26" y="-26" width="52" height="52" class="key"/>
<text x="0" y="2" class="key tap">H</text>
</g>
<g transform="translate(696, 84)" class="key keypos-17">
<rect rx="6" ry="6" x="-26" y="-26" width="52" height="52" class="key"/>
<text x="0" y="2" class="key tap">A</text>
</g>
<g transform="translate(757, 118) rotate(4.0)" class="key keypos-18">
<rect rx="6" ry="6" x="-26" y="-26" width="52" height="52" class="key"/>
<text x="0" y="2" class="key tap">E</text>
</g>
<g transform="translate(814, 168) rotate(10.0)" class="key keypos-19">
<rect rx="6" ry="6" x="-26" y="-26" width="52" height="52" class="key"/>
<text x="0" y="2" class="key tap">I</text>
</g>
<g transform="translate(32, 209) rotate(-10.0)" class="key keypos-20">
<rect rx="6" ry="6" x="-26" y="-26" width="52" height="52" class="key"/>
<text x="0" y="2" class="key tap">LSHFT</text>
<text x="0" y="14" class="key hold">TAB</text>
</g>
<g transform="translate(92, 223) rotate(-10.0)" class="key keypos-21">
<rect rx="6" ry="6" x="-26" y="-26" width="52" height="52" class="key"/>
<text x="0" y="2" class="key tap">Q</text>
</g>
<g transform="translate(144, 174) rotate(-4.0)" class="key keypos-22">
<rect rx="6" ry="6" x="-26" y="-26" width="52" height="52" class="key"/>
<text x="0" y="2" class="key tap">X</text>
</g>
<g transform="translate(200, 140)" class="key keypos-23">
<rect rx="6" ry="6" x="-26" y="-26" width="52" height="52" class="key"/>
<text x="0" y="2" class="key tap">M</text>
</g>
<g transform="translate(256, 168)" class="key keypos-24">
<rect rx="6" ry="6" x="-26" y="-26" width="52" height="52" class="key"/>
<text x="0" y="2" class="key tap">C</text>
</g>
<g transform="translate(312, 177)" class="key keypos-25">
<rect rx="6" ry="6" x="-26" y="-26" width="52" height="52" class="key"/>
<text x="0" y="2" class="key tap">V</text>
</g>
<g transform="translate(584, 177)" class="key keypos-26">
<rect rx="6" ry="6" x="-26" y="-26" width="52" height="52" class="key"/>
<text x="0" y="2" class="key tap">K</text>
</g>
<g transform="translate(640, 168)" class="key keypos-27">
<rect rx="6" ry="6" x="-26" y="-26" width="52" height="52" class="key"/>
<text x="0" y="2" class="key tap">P</text>
</g>
<g transform="translate(696, 140)" class="key keypos-28">
<rect rx="6" ry="6" x="-26" y="-26" width="52" height="52" class="key"/>
<text x="0" y="2" class="key tap">,</text>
</g>
<g transform="translate(753, 174) rotate(4.0)" class="key keypos-29">
<rect rx="6" ry="6" x="-26" y="-26" width="52" height="52" class="key"/>
<text x="0" y="2" class="key tap">.</text>
</g>
<g transform="translate(805, 223) rotate(10.0)" class="key keypos-30">
<rect rx="6" ry="6" x="-26" y="-26" width="52" height="52" class="key"/>
<text x="0" y="2" class="key tap">/</text>
</g>
<g transform="translate(864, 209) rotate(10.0)" class="key keypos-31">
<rect rx="6" ry="6" x="-26" y="-26" width="52" height="52" class="key"/>
<text x="0" y="2" class="key tap">RSHFT</text>
</g>
<g transform="translate(241, 236)" class="key keypos-32">
<rect rx="6" ry="6" x="-26" y="-26" width="52" height="52" class="key"/>
<text x="0" y="2" class="key tap">ESC</text>
<text x="0" y="14" class="key hold">LCTRL</text>
</g>
<g transform="translate(303, 245) rotate(15.0)" class="key keypos-33">
<rect rx="6" ry="6" x="-26" y="-26" width="52" height="52" class="key"/>
<text x="0" y="2" class="key tap">SYM</text>
<text x="0" y="14" class="key hold">SYM</text>
</g>
<g transform="translate(360, 270) rotate(30.0)" class="key keypos-34">
<rect rx="6" ry="6" x="-26" y="-26" width="52" height="52" class="key"/>
<text x="0" y="2" class="key tap">SPC</text>
</g>
<g transform="translate(536, 270) rotate(-30.0)" class="key keypos-35">
<rect rx="6" ry="6" x="-26" y="-26" width="52" height="52" class="key"/>
<text x="0" y="2" class="key tap">RET</text>
</g>
<g transform="translate(594, 245) rotate(-15.0)" class="key keypos-36">
<rect rx="6" ry="6" x="-26" y="-26" width="52" height="52" class="key"/>
<text x="0" y="2" class="key tap">BSPC</text>
</g>
<g transform="translate(656, 236)" class="key keypos-37">
<rect rx="6" ry="6" x="-26" y="-26" width="52" height="52" class="key"/>
<text x="0" y="2" class="key tap">RALT</text>
</g>
<g class="combo combopos-0">
<rect rx="6" ry="6" x="104" y="186" width="28" height="26" class="combo"/>
<a href="#Device">
<text x="118" y="199" class="combo tap layer-activator">Device</text>
</a></g>
<g class="combo combopos-1">
<rect rx="6" ry="6" x="711" y="144" width="28" height="26" class="combo"/>
<text x="725" y="157" class="combo tap">
<tspan x="725" dy="-0.6em" style="font-size: 78%">&amp;num_word</tspan><tspan x="725" dy="1.2em" style="font-size: 78%">2</tspan>
</text>
</g>
<g class="combo combopos-2">
<rect rx="6" ry="6" x="214" y="141" width="28" height="26" class="combo"/>
<a href="#Number">
<text x="228" y="154" class="combo tap layer-activator">Number</text>
</a></g>
</g>
</g>
<g transform="translate(30, 365)" class="layer-Symbols">
<text x="0" y="28" class="label" id="Symbols">Symbols:</text>
<g transform="translate(0, 56)">
<g transform="translate(73, 113) rotate(-10.0)" class="key trans keypos-0">
<rect rx="6" ry="6" x="-26" y="-26" width="52" height="52" class="key trans"/>
<text x="0" y="2" class="key trans tap">▽</text>
</g>
<g transform="translate(137, 62) rotate(-4.0)" class="key keypos-1">
<rect rx="6" ry="6" x="-26" y="-26" width="52" height="52" class="key"/>
<text x="0" y="2" class="key tap">@</text>
</g>
<g transform="translate(200, 28)" class="key keypos-2">
<rect rx="6" ry="6" x="-26" y="-26" width="52" height="52" class="key"/>
<text x="0" y="2" class="key tap">`</text>
</g>
<g transform="translate(256, 56)" class="key trans keypos-3">
<rect rx="6" ry="6" x="-26" y="-26" width="52" height="52" class="key trans"/>
<text x="0" y="2" class="key trans tap">▽</text>
</g>
<g transform="translate(312, 65)" class="key keypos-4">
<rect rx="6" ry="6" x="-26" y="-26" width="52" height="52" class="key"/>
<text x="0" y="2" class="key tap">&amp;</text>
</g>
<g transform="translate(584, 65)" class="key trans keypos-5">
<rect rx="6" ry="6" x="-26" y="-26" width="52" height="52" class="key trans"/>
<text x="0" y="2" class="key trans tap">▽</text>
</g>
<g transform="translate(640, 56)" class="key trans keypos-6">
<rect rx="6" ry="6" x="-26" y="-26" width="52" height="52" class="key trans"/>
<text x="0" y="2" class="key trans tap">▽</text>
</g>
<g transform="translate(696, 28)" class="key trans keypos-7">
<rect rx="6" ry="6" x="-26" y="-26" width="52" height="52" class="key trans"/>
<text x="0" y="2" class="key trans tap">▽</text>
</g>
<g transform="translate(760, 62) rotate(4.0)" class="key keypos-8">
<rect rx="6" ry="6" x="-26" y="-26" width="52" height="52" class="key"/>
<text x="0" y="2" class="key tap">-</text>
</g>
<g transform="translate(823, 113) rotate(10.0)" class="key keypos-9">
<rect rx="6" ry="6" x="-26" y="-26" width="52" height="52" class="key"/>
<text x="0" y="2" class="key tap">=</text>
</g>
<g transform="translate(83, 168) rotate(-10.0)" class="key keypos-10">
<rect rx="6" ry="6" x="-26" y="-26" width="52" height="52" class="key"/>
<text x="0" y="2" class="key tap">^</text>
</g>
<g transform="translate(140, 118) rotate(-4.0)" class="key keypos-11">
<rect rx="6" ry="6" x="-26" y="-26" width="52" height="52" class="key"/>
<text x="0" y="2" class="key tap">[</text>
</g>
<g transform="translate(200, 84)" class="key keypos-12">
<rect rx="6" ry="6" x="-26" y="-26" width="52" height="52" class="key"/>
<text x="0" y="2" class="key tap">(</text>
</g>
<g transform="translate(256, 112)" class="key keypos-13">
<rect rx="6" ry="6" x="-26" y="-26" width="52" height="52" class="key"/>
<text x="0" y="2" class="key tap">#</text>
</g>
<g transform="translate(312, 121)" class="key keypos-14">
<rect rx="6" ry="6" x="-26" y="-26" width="52" height="52" class="key"/>
<text x="0" y="2" class="key tap">$</text>
</g>
<g transform="translate(584, 121)" class="key keypos-15">
<rect rx="6" ry="6" x="-26" y="-26" width="52" height="52" class="key"/>
<text x="0" y="2" class="key tap">
<tspan x="0" dy="-0.6em">PG</tspan><tspan x="0" dy="1.2em">UP</tspan>
</text>
</g>
<g transform="translate(640, 112)" class="key keypos-16">
<rect rx="6" ry="6" x="-26" y="-26" width="52" height="52" class="key"/>
<text x="0" y="2" class="key tap">LEFT</text>
</g>
<g transform="translate(696, 84)" class="key keypos-17">
<rect rx="6" ry="6" x="-26" y="-26" width="52" height="52" class="key"/>
<text x="0" y="2" class="key tap">DOWN</text>
</g>
<g transform="translate(757, 118) rotate(4.0)" class="key keypos-18">
<rect rx="6" ry="6" x="-26" y="-26" width="52" height="52" class="key"/>
<text x="0" y="2" class="key tap">UP</text>
</g>
<g transform="translate(814, 168) rotate(10.0)" class="key keypos-19">
<rect rx="6" ry="6" x="-26" y="-26" width="52" height="52" class="key"/>
<text x="0" y="2" class="key tap">RIGHT</text>
</g>
<g transform="translate(32, 209) rotate(-10.0)" class="key keypos-20">
<rect rx="6" ry="6" x="-26" y="-26" width="52" height="52" class="key"/>
<text x="0" y="2" class="key tap">LGUI</text>
</g>
<g transform="translate(92, 223) rotate(-10.0)" class="key keypos-21">
<rect rx="6" ry="6" x="-26" y="-26" width="52" height="52" class="key"/>
<text x="0" y="2" class="key tap">!</text>
</g>
<g transform="translate(144, 174) rotate(-4.0)" class="key keypos-22">
<rect rx="6" ry="6" x="-26" y="-26" width="52" height="52" class="key"/>
<text x="0" y="2" class="key tap">]</text>
</g>
<g transform="translate(200, 140)" class="key keypos-23">
<rect rx="6" ry="6" x="-26" y="-26" width="52" height="52" class="key"/>
<text x="0" y="2" class="key tap">)</text>
</g>
<g transform="translate(256, 168)" class="key keypos-24">
<rect rx="6" ry="6" x="-26" y="-26" width="52" height="52" class="key"/>
<text x="0" y="2" class="key tap">*</text>
</g>
<g transform="translate(312, 177)" class="key keypos-25">
<rect rx="6" ry="6" x="-26" y="-26" width="52" height="52" class="key"/>
<text x="0" y="2" class="key tap">%</text>
</g>
<g transform="translate(584, 177)" class="key keypos-26">
<rect rx="6" ry="6" x="-26" y="-26" width="52" height="52" class="key"/>
<text x="0" y="2" class="key tap">
<tspan x="0" dy="-0.6em">PG</tspan><tspan x="0" dy="1.2em">DN</tspan>
</text>
</g>
<g transform="translate(640, 168)" class="key keypos-27">
<rect rx="6" ry="6" x="-26" y="-26" width="52" height="52" class="key"/>
<text x="0" y="2" class="key tap">HOME</text>
</g>
<g transform="translate(696, 140)" class="key keypos-28">
<rect rx="6" ry="6" x="-26" y="-26" width="52" height="52" class="key"/>
<text x="0" y="2" class="key tap">END</text>
</g>
<g transform="translate(753, 174) rotate(4.0)" class="key keypos-29">
<rect rx="6" ry="6" x="-26" y="-26" width="52" height="52" class="key"/>
<text x="0" y="2" class="key tap">&#x27;</text>
</g>
<g transform="translate(805, 223) rotate(10.0)" class="key keypos-30">
<rect rx="6" ry="6" x="-26" y="-26" width="52" height="52" class="key"/>
<text x="0" y="2" class="key tap">\</text>
</g>
<g transform="translate(864, 209) rotate(10.0)" class="key keypos-31">
<rect rx="6" ry="6" x="-26" y="-26" width="52" height="52" class="key"/>
<text x="0" y="2" class="key tap">RGUI</text>
</g>
<g transform="translate(241, 236)" class="key trans keypos-32">
<rect rx="6" ry="6" x="-26" y="-26" width="52" height="52" class="key trans"/>
<text x="0" y="2" class="key trans tap">▽</text>
</g>
<g transform="translate(303, 245) rotate(15.0)" class="key trans keypos-33">
<rect rx="6" ry="6" x="-26" y="-26" width="52" height="52" class="key trans"/>
<text x="0" y="2" class="key trans tap">▽</text>
</g>
<g transform="translate(360, 270) rotate(30.0)" class="key trans keypos-34">
<rect rx="6" ry="6" x="-26" y="-26" width="52" height="52" class="key trans"/>
<text x="0" y="2" class="key trans tap">▽</text>
</g>
<g transform="translate(536, 270) rotate(-30.0)" class="key trans keypos-35">
<rect rx="6" ry="6" x="-26" y="-26" width="52" height="52" class="key trans"/>
<text x="0" y="2" class="key trans tap">▽</text>
</g>
<g transform="translate(594, 245) rotate(-15.0)" class="key keypos-36">
<rect rx="6" ry="6" x="-26" y="-26" width="52" height="52" class="key"/>
<text x="0" y="2" class="key tap">DEL</text>
</g>
<g transform="translate(656, 236)" class="key trans keypos-37">
<rect rx="6" ry="6" x="-26" y="-26" width="52" height="52" class="key trans"/>
<text x="0" y="2" class="key trans tap">▽</text>
</g>
</g>
</g>
<g transform="translate(30, 729)" class="layer-Number">
<text x="0" y="28" class="label" id="Number">Number:</text>
<g transform="translate(0, 56)">
<g transform="translate(73, 113) rotate(-10.0)" class="key keypos-0">
<rect rx="6" ry="6" x="-26" y="-26" width="52" height="52" class="key"/>
<text x="0" y="2" class="key tap">HOME</text>
</g>
<g transform="translate(137, 62) rotate(-4.0)" class="key keypos-1">
<rect rx="6" ry="6" x="-26" y="-26" width="52" height="52" class="key"/>
<text x="0" y="2" class="key tap">
<tspan x="0" dy="-0.6em">PG</tspan><tspan x="0" dy="1.2em">UP</tspan>
</text>
</g>
<g transform="translate(200, 28)" class="key keypos-2">
<rect rx="6" ry="6" x="-26" y="-26" width="52" height="52" class="key"/>
<text x="0" y="2" class="key tap">
<tspan x="0" dy="-0.6em">PG</tspan><tspan x="0" dy="1.2em">DN</tspan>
</text>
</g>
<g transform="translate(256, 56)" class="key keypos-3">
<rect rx="6" ry="6" x="-26" y="-26" width="52" height="52" class="key"/>
<text x="0" y="2" class="key tap">END</text>
</g>
<g transform="translate(312, 65)" class="key trans keypos-4">
<rect rx="6" ry="6" x="-26" y="-26" width="52" height="52" class="key trans"/>
<text x="0" y="2" class="key trans tap">▽</text>
</g>
<g transform="translate(584, 65)" class="key keypos-5">
<rect rx="6" ry="6" x="-26" y="-26" width="52" height="52" class="key"/>
<text x="0" y="2" class="key tap">*</text>
</g>
<g transform="translate(640, 56)" class="key keypos-6">
<rect rx="6" ry="6" x="-26" y="-26" width="52" height="52" class="key"/>
<text x="0" y="2" class="key tap">7</text>
</g>
<g transform="translate(696, 28)" class="key keypos-7">
<rect rx="6" ry="6" x="-26" y="-26" width="52" height="52" class="key"/>
<text x="0" y="2" class="key tap">8</text>
</g>
<g transform="translate(760, 62) rotate(4.0)" class="key keypos-8">
<rect rx="6" ry="6" x="-26" y="-26" width="52" height="52" class="key"/>
<text x="0" y="2" class="key tap">9</text>
</g>
<g transform="translate(823, 113) rotate(10.0)" class="key keypos-9">
<rect rx="6" ry="6" x="-26" y="-26" width="52" height="52" class="key"/>
<text x="0" y="2" class="key tap">-</text>
</g>
<g transform="translate(83, 168) rotate(-10.0)" class="key keypos-10">
<rect rx="6" ry="6" x="-26" y="-26" width="52" height="52" class="key"/>
<text x="0" y="2" class="key tap">LEFT</text>
</g>
<g transform="translate(140, 118) rotate(-4.0)" class="key keypos-11">
<rect rx="6" ry="6" x="-26" y="-26" width="52" height="52" class="key"/>
<text x="0" y="2" class="key tap">UP</text>
</g>
<g transform="translate(200, 84)" class="key keypos-12">
<rect rx="6" ry="6" x="-26" y="-26" width="52" height="52" class="key"/>
<text x="0" y="2" class="key tap">DOWN</text>
</g>
<g transform="translate(256, 112)" class="key keypos-13">
<rect rx="6" ry="6" x="-26" y="-26" width="52" height="52" class="key"/>
<text x="0" y="2" class="key tap">RIGHT</text>
</g>
<g transform="translate(312, 121)" class="key trans keypos-14">
<rect rx="6" ry="6" x="-26" y="-26" width="52" height="52" class="key trans"/>
<text x="0" y="2" class="key trans tap">▽</text>
</g>
<g transform="translate(584, 121)" class="key keypos-15">
<rect rx="6" ry="6" x="-26" y="-26" width="52" height="52" class="key"/>
<text x="0" y="2" class="key tap">=</text>
</g>
<g transform="translate(640, 112)" class="key keypos-16">
<rect rx="6" ry="6" x="-26" y="-26" width="52" height="52" class="key"/>
<text x="0" y="2" class="key tap">4</text>
</g>
<g transform="translate(696, 84)" class="key keypos-17">
<rect rx="6" ry="6" x="-26" y="-26" width="52" height="52" class="key"/>
<text x="0" y="2" class="key tap">5</text>
</g>
<g transform="translate(757, 118) rotate(4.0)" class="key keypos-18">
<rect rx="6" ry="6" x="-26" y="-26" width="52" height="52" class="key"/>
<text x="0" y="2" class="key tap">6</text>
</g>
<g transform="translate(814, 168) rotate(10.0)" class="key keypos-19">
<rect rx="6" ry="6" x="-26" y="-26" width="52" height="52" class="key"/>
<text x="0" y="2" class="key tap">+</text>
</g>
<g transform="translate(32, 209) rotate(-10.0)" class="key keypos-20">
<rect rx="6" ry="6" x="-26" y="-26" width="52" height="52" class="key"/>
<text x="0" y="2" class="key tap">TAB</text>
</g>
<g transform="translate(92, 223) rotate(-10.0)" class="key trans keypos-21">
<rect rx="6" ry="6" x="-26" y="-26" width="52" height="52" class="key trans"/>
<text x="0" y="2" class="key trans tap">▽</text>
</g>
<g transform="translate(144, 174) rotate(-4.0)" class="key trans keypos-22">
<rect rx="6" ry="6" x="-26" y="-26" width="52" height="52" class="key trans"/>
<text x="0" y="2" class="key trans tap">▽</text>
</g>
<g transform="translate(200, 140)" class="key held keypos-23">
<rect rx="6" ry="6" x="-26" y="-26" width="52" height="52" class="key held"/>
</g>
<g transform="translate(256, 168)" class="key held keypos-24">
<rect rx="6" ry="6" x="-26" y="-26" width="52" height="52" class="key held"/>
</g>
<g transform="translate(312, 177)" class="key trans keypos-25">
<rect rx="6" ry="6" x="-26" y="-26" width="52" height="52" class="key trans"/>
<text x="0" y="2" class="key trans tap">▽</text>
</g>
<g transform="translate(584, 177)" class="key keypos-26">
<rect rx="6" ry="6" x="-26" y="-26" width="52" height="52" class="key"/>
<text x="0" y="2" class="key tap">0</text>
</g>
<g transform="translate(640, 168)" class="key keypos-27">
<rect rx="6" ry="6" x="-26" y="-26" width="52" height="52" class="key"/>
<text x="0" y="2" class="key tap">1</text>
</g>
<g transform="translate(696, 140)" class="key keypos-28">
<rect rx="6" ry="6" x="-26" y="-26" width="52" height="52" class="key"/>
<text x="0" y="2" class="key tap">2</text>
</g>
<g transform="translate(753, 174) rotate(4.0)" class="key keypos-29">
<rect rx="6" ry="6" x="-26" y="-26" width="52" height="52" class="key"/>
<text x="0" y="2" class="key tap">3</text>
<text x="0" y="-14" class="key shifted">.</text>
</g>
<g transform="translate(805, 223) rotate(10.0)" class="key keypos-30">
<rect rx="6" ry="6" x="-26" y="-26" width="52" height="52" class="key"/>
<text x="0" y="2" class="key tap">/</text>
</g>
<g transform="translate(864, 209) rotate(10.0)" class="key trans keypos-31">
<rect rx="6" ry="6" x="-26" y="-26" width="52" height="52" class="key trans"/>
<text x="0" y="2" class="key trans tap">▽</text>
</g>
<g transform="translate(241, 236)" class="key trans keypos-32">
<rect rx="6" ry="6" x="-26" y="-26" width="52" height="52" class="key trans"/>
<text x="0" y="2" class="key trans tap">▽</text>
</g>
<g transform="translate(303, 245) rotate(15.0)" class="key trans keypos-33">
<rect rx="6" ry="6" x="-26" y="-26" width="52" height="52" class="key trans"/>
<text x="0" y="2" class="key trans tap">▽</text>
</g>
<g transform="translate(360, 270) rotate(30.0)" class="key trans keypos-34">
<rect rx="6" ry="6" x="-26" y="-26" width="52" height="52" class="key trans"/>
<text x="0" y="2" class="key trans tap">▽</text>
</g>
<g transform="translate(536, 270) rotate(-30.0)" class="key keypos-35">
<rect rx="6" ry="6" x="-26" y="-26" width="52" height="52" class="key"/>
<text x="0" y="2" class="key tap">RET</text>
</g>
<g transform="translate(594, 245) rotate(-15.0)" class="key trans keypos-36">
<rect rx="6" ry="6" x="-26" y="-26" width="52" height="52" class="key trans"/>
<text x="0" y="2" class="key trans tap">▽</text>
</g>
<g transform="translate(656, 236)" class="key trans keypos-37">
<rect rx="6" ry="6" x="-26" y="-26" width="52" height="52" class="key trans"/>
<text x="0" y="2" class="key trans tap">▽</text>
</g>
</g>
</g>
<g transform="translate(30, 1094)" class="layer-Device">
<text x="0" y="28" class="label" id="Device">Device:</text>
<g transform="translate(0, 56)">
<g transform="translate(73, 113) rotate(-10.0)" class="key keypos-0">
<rect rx="6" ry="6" x="-26" y="-26" width="52" height="52" class="key"/>
<text x="0" y="2" class="key tap">
<tspan x="0" dy="-0.6em">OUT</tspan><tspan x="0" dy="1.2em">TOG</tspan>
</text>
</g>
<g transform="translate(137, 62) rotate(-4.0)" class="key trans keypos-1">
<rect rx="6" ry="6" x="-26" y="-26" width="52" height="52" class="key trans"/>
<text x="0" y="2" class="key trans tap">▽</text>
</g>
<g transform="translate(200, 28)" class="key trans keypos-2">
<rect rx="6" ry="6" x="-26" y="-26" width="52" height="52" class="key trans"/>
<text x="0" y="2" class="key trans tap">▽</text>
</g>
<g transform="translate(256, 56)" class="key trans keypos-3">
<rect rx="6" ry="6" x="-26" y="-26" width="52" height="52" class="key trans"/>
<text x="0" y="2" class="key trans tap">▽</text>
</g>
<g transform="translate(312, 65)" class="key trans keypos-4">
<rect rx="6" ry="6" x="-26" y="-26" width="52" height="52" class="key trans"/>
<text x="0" y="2" class="key trans tap">▽</text>
</g>
<g transform="translate(584, 65)" class="key trans keypos-5">
<rect rx="6" ry="6" x="-26" y="-26" width="52" height="52" class="key trans"/>
<text x="0" y="2" class="key trans tap">▽</text>
</g>
<g transform="translate(640, 56)" class="key keypos-6">
<rect rx="6" ry="6" x="-26" y="-26" width="52" height="52" class="key"/>
<text x="0" y="2" class="key tap">PP</text>
</g>
<g transform="translate(696, 28)" class="key keypos-7">
<rect rx="6" ry="6" x="-26" y="-26" width="52" height="52" class="key"/>
<text x="0" y="2" class="key tap">NEXT</text>
</g>
<g transform="translate(760, 62) rotate(4.0)" class="key trans keypos-8">
<rect rx="6" ry="6" x="-26" y="-26" width="52" height="52" class="key trans"/>
<text x="0" y="2" class="key trans tap">▽</text>
</g>
<g transform="translate(823, 113) rotate(10.0)" class="key trans keypos-9">
<rect rx="6" ry="6" x="-26" y="-26" width="52" height="52" class="key trans"/>
<text x="0" y="2" class="key trans tap">▽</text>
</g>
<g transform="translate(83, 168) rotate(-10.0)" class="key keypos-10">
<rect rx="6" ry="6" x="-26" y="-26" width="52" height="52" class="key"/>
<text x="0" y="2" class="key tap">PSCRN</text>
</g>
<g transform="translate(140, 118) rotate(-4.0)" class="key keypos-11">
<rect rx="6" ry="6" x="-26" y="-26" width="52" height="52" class="key"/>
<text x="0" y="2" class="key tap">BT</text>
<text x="0" y="14" class="key hold">0</text>
</g>
<g transform="translate(200, 84)" class="key keypos-12">
<rect rx="6" ry="6" x="-26" y="-26" width="52" height="52" class="key"/>
<text x="0" y="2" class="key tap">BT</text>
<text x="0" y="14" class="key hold">1</text>
</g>
<g transform="translate(256, 112)" class="key keypos-13">
<rect rx="6" ry="6" x="-26" y="-26" width="52" height="52" class="key"/>
<text x="0" y="2" class="key tap">BT</text>
<text x="0" y="14" class="key hold">2</text>
</g>
<g transform="translate(312, 121)" class="key keypos-14">
<rect rx="6" ry="6" x="-26" y="-26" width="52" height="52" class="key"/>
<text x="0" y="2" class="key tap">BT</text>
<text x="0" y="14" class="key hold">3</text>
</g>
<g transform="translate(584, 121)" class="key trans keypos-15">
<rect rx="6" ry="6" x="-26" y="-26" width="52" height="52" class="key trans"/>
<text x="0" y="2" class="key trans tap">▽</text>
</g>
<g transform="translate(640, 112)" class="key keypos-16">
<rect rx="6" ry="6" x="-26" y="-26" width="52" height="52" class="key"/>
<text x="0" y="2" class="key tap">
<tspan x="0" dy="-0.6em">VOL</tspan><tspan x="0" dy="1.2em">DN</tspan>
</text>
</g>
<g transform="translate(696, 84)" class="key keypos-17">
<rect rx="6" ry="6" x="-26" y="-26" width="52" height="52" class="key"/>
<text x="0" y="2" class="key tap">
<tspan x="0" dy="-0.6em">VOL</tspan><tspan x="0" dy="1.2em">UP</tspan>
</text>
</g>
<g transform="translate(757, 118) rotate(4.0)" class="key keypos-18">
<rect rx="6" ry="6" x="-26" y="-26" width="52" height="52" class="key"/>
<text x="0" y="2" class="key tap">
<tspan x="0" dy="-0.6em">BRI</tspan><tspan x="0" dy="1.2em">DN</tspan>
</text>
</g>
<g transform="translate(814, 168) rotate(10.0)" class="key keypos-19">
<rect rx="6" ry="6" x="-26" y="-26" width="52" height="52" class="key"/>
<text x="0" y="2" class="key tap">
<tspan x="0" dy="-0.6em">BRI</tspan><tspan x="0" dy="1.2em">UP</tspan>
</text>
</g>
<g transform="translate(32, 209) rotate(-10.0)" class="key trans keypos-20">
<rect rx="6" ry="6" x="-26" y="-26" width="52" height="52" class="key trans"/>
<text x="0" y="2" class="key trans tap">▽</text>
</g>
<g transform="translate(92, 223) rotate(-10.0)" class="key held keypos-21">
<rect rx="6" ry="6" x="-26" y="-26" width="52" height="52" class="key held"/>
</g>
<g transform="translate(144, 174) rotate(-4.0)" class="key held keypos-22">
<rect rx="6" ry="6" x="-26" y="-26" width="52" height="52" class="key held"/>
</g>
<g transform="translate(200, 140)" class="key trans keypos-23">
<rect rx="6" ry="6" x="-26" y="-26" width="52" height="52" class="key trans"/>
<text x="0" y="2" class="key trans tap">▽</text>
</g>
<g transform="translate(256, 168)" class="key trans keypos-24">
<rect rx="6" ry="6" x="-26" y="-26" width="52" height="52" class="key trans"/>
<text x="0" y="2" class="key trans tap">▽</text>
</g>
<g transform="translate(312, 177)" class="key trans keypos-25">
<rect rx="6" ry="6" x="-26" y="-26" width="52" height="52" class="key trans"/>
<text x="0" y="2" class="key trans tap">▽</text>
</g>
<g transform="translate(584, 177)" class="key trans keypos-26">
<rect rx="6" ry="6" x="-26" y="-26" width="52" height="52" class="key trans"/>
<text x="0" y="2" class="key trans tap">▽</text>
</g>
<g transform="translate(640, 168)" class="key trans keypos-27">
<rect rx="6" ry="6" x="-26" y="-26" width="52" height="52" class="key trans"/>
<text x="0" y="2" class="key trans tap">▽</text>
</g>
<g transform="translate(696, 140)" class="key keypos-28">
<rect rx="6" ry="6" x="-26" y="-26" width="52" height="52" class="key"/>
<text x="0" y="2" class="key tap">
<tspan x="0" dy="-1.2em">BT</tspan><tspan x="0" dy="1.2em">CLR</tspan><tspan x="0" dy="1.2em">ALL</tspan>
</text>
</g>
<g transform="translate(753, 174) rotate(4.0)" class="key trans keypos-29">
<rect rx="6" ry="6" x="-26" y="-26" width="52" height="52" class="key trans"/>
<text x="0" y="2" class="key trans tap">▽</text>
</g>
<g transform="translate(805, 223) rotate(10.0)" class="key trans keypos-30">
<rect rx="6" ry="6" x="-26" y="-26" width="52" height="52" class="key trans"/>
<text x="0" y="2" class="key trans tap">▽</text>
</g>
<g transform="translate(864, 209) rotate(10.0)" class="key trans keypos-31">
<rect rx="6" ry="6" x="-26" y="-26" width="52" height="52" class="key trans"/>
<text x="0" y="2" class="key trans tap">▽</text>
</g>
<g transform="translate(241, 236)" class="key trans keypos-32">
<rect rx="6" ry="6" x="-26" y="-26" width="52" height="52" class="key trans"/>
<text x="0" y="2" class="key trans tap">▽</text>
</g>
<g transform="translate(303, 245) rotate(15.0)" class="key trans keypos-33">
<rect rx="6" ry="6" x="-26" y="-26" width="52" height="52" class="key trans"/>
<text x="0" y="2" class="key trans tap">▽</text>
</g>
<g transform="translate(360, 270) rotate(30.0)" class="key trans keypos-34">
<rect rx="6" ry="6" x="-26" y="-26" width="52" height="52" class="key trans"/>
<text x="0" y="2" class="key trans tap">▽</text>
</g>
<g transform="translate(536, 270) rotate(-30.0)" class="key trans keypos-35">
<rect rx="6" ry="6" x="-26" y="-26" width="52" height="52" class="key trans"/>
<text x="0" y="2" class="key trans tap">▽</text>
</g>
<g transform="translate(594, 245) rotate(-15.0)" class="key trans keypos-36">
<rect rx="6" ry="6" x="-26" y="-26" width="52" height="52" class="key trans"/>
<text x="0" y="2" class="key trans tap">▽</text>
</g>
<g transform="translate(656, 236)" class="key trans keypos-37">
<rect rx="6" ry="6" x="-26" y="-26" width="52" height="52" class="key trans"/>
<text x="0" y="2" class="key trans tap">▽</text>
</g>
</g>
</g>
</svg>
